<?xml version="1.0" encoding="utf-8"?>
<!-- Generator: Adobe Illustrator 18.0.0, SVG Export Plug-In . SVG Version: 6.00 Build 0)  -->
<!DOCTYPE svg PUBLIC "-//W3C//DTD SVG 1.1//EN" "http://www.w3.org/Graphics/SVG/1.1/DTD/svg11.dtd">
<svg version="1.1" xmlns="http://www.w3.org/2000/svg" xmlns:xlink="http://www.w3.org/1999/xlink" x="0px" y="0px"
	 viewBox="40 150 800 800" enable-background="new 0 0 2272 1872" xml:space="preserve">
<g id="Background">
	<rect x="-12.7" y="-29.1" fill="#FFFFFF" width="2297.7" height="1919.7"/>
</g>
<g id="Object">
	<ellipse fill="#E6E7E8" cx="450" cy="837" rx="268" ry="56"/>
	<g>
		<path fill="#FFFFFF" d="M556.3,509.6c4.3-5.7,7.8-11.7,11.6-17.8c-10.3,0.1-20.5,1.1-30.7,2.4c2.9,1.8,5.6,4.5,8,6.5
			C548.7,503.6,553.7,506,556.3,509.6z"/>
		<path fill="#FFFFFF" d="M524.4,502.2c0.8-2,1.4-4.3,2.3-6.3c-6.8,1.1-13.7,2.3-20.5,3.6c5.3,3.8,9.9,9.4,13.9,14.8
			C521.4,510.2,522.8,506.2,524.4,502.2z"/>
		<path fill="#006080" d="M549.9,517.1c0.8-0.8,1.4-1.6,2.1-2.4c-4-1.2-7.5-4.9-10.6-7.5c-2.7-2.3-6.4-4.8-8.9-7.8
			c-0.9,2.2-2,4.3-2.7,6.3c-2,5.4-3.9,10.9-5.6,16.4c-0.6,2-3.8,4-5.5,1.8c-4.8-6.4-11-12.4-15.6-19.1c-1.7,7.7-4,15.3-6.3,22.9
			c-0.3,1.1-1.1,1.9-2,2.3c3.2,0.3,6.4,0.4,9.6,0.5C520.2,530.6,538,528.9,549.9,517.1z"/>
		<path fill="#007EA6" d="M638.6,689.2c4.4-4.4,9-7.7,14.2-10.4c-10.8-3.6-29.3,2-39.6-1.2c-6.1-1.9-11.3-4.4-15.3-8.5
			c-0.3,4.6-0.7,9.1-1.4,13.5c8.1,2.7,20.5,5.3,26,11.6c4.4,5.2,6.7,11.5,8.8,17.9c0.6-2.9,1.2-5.8,2-8.7c0.5-2,2.4-3,4.3-2.8
			c6.9,0.8,13.7,1.2,20.6,1.4c-6-2.6-12.1-4.9-18.3-7C637.3,694.2,636.7,691,638.6,689.2z"/>
		<path fill="#006080" d="M449.8,509.1c-4.1,0.5-8.2,0.9-12.3,1.1c6.8,4.4,13.8,7.9,21,10.9c-1.3-1.8-2.6-3.6-4-5.3
			C452.8,513.6,450.8,511.8,449.8,509.1z"/>
		<path fill="#FFFFFF" d="M464.7,519.8c1.4-3.1,2.7-6.3,3.9-9.4c0.5-1.4,1-2.8,1.6-4.1c-5,0.8-10.1,1.6-15.1,2.3
			c1.6,1.4,3,3,4.4,4.6C461.2,515.3,462.9,517.6,464.7,519.8z"/>
		<path fill="#FFFFFF" d="M497.8,501.1c-6.5,1.3-12.9,2.5-19.4,3.7c2.9,2.5,5.5,5.4,7.9,8.3c1.9,2.2,3.8,5.6,6,8.1
			C494.1,514.5,495.8,507.7,497.8,501.1z"/>
		<path fill="#006080" d="M481.9,517.8c-2.2-2.8-4.6-5.5-6.8-8.4c-1.4,5.3-4.2,10.7-6.6,15.3c7.6,2.3,15.4,3.9,23.4,4.8
			C487.6,526.9,484.9,521.5,481.9,517.8z"/>
		<path fill="#00A8DE" d="M571.7,496.9c-10.1,23.6-31.6,39.7-58,40.6c-28.9,0.9-64.2-4.4-85.3-26.1c-0.3-0.3-0.5-0.7-0.6-1.2
			c-1.9-1.3-1.2-5.2,1.7-5.3c55.6-2,109.1-25.4,165.1-17.6c-2.2-37-0.9-75.2-8-111.6c-3.6-18.3-10-35.1-17.9-51.9
			c-3.9-8.2-7.8-20.4-16.4-24.9c-4.4-2.3-27.3-13.8-32.8-8.4c-1.7,1.6-3.9,0.2-3.5-2c0.2-0.8,0.3-1.6,0.5-2.4
			c-0.7-5.5,1.2-10.9-0.3-16.6c-1.6-6.3-4.4-12.3-9.4-16.6c-11.4-9.9-22.2-9.2-35.6-4.7c-2.7,0.9-3.9-1.9-3-4
			c-5.1-13.3-14.3-22.7-30.3-18.2c-7.5,2.1-14.6,6.4-16.5,14.6c-0.7,3.1-1.2,5.9-2.5,8.8c-0.3,0.6-1.4,1-1.9,0.3
			c-0.1-0.1-0.1-0.2-0.2-0.3c-4,2.1-8.4,2.4-12.6,4.1c-5.4,2.2-10.8,5.2-14.5,9.9c-7.2,9.2-5.8,18-5,28.8c0.1,1.5-1.9,2.5-3,1.4
			c-2.5-2.5-3.8-5.7-4.3-9.2c-22.3-0.2-45.7-0.2-65.6,11.6c-21.6,12.8-25.6,34.8-26.1,58.2c-0.5,21.9-3.9,46.5,1.1,68
			c2.4,10.3,6,21.1,6.4,31.8c4.4,17.3,5.8,36,7.1,53.6c0.9,11.5,1.4,23.1,1.4,34.7c0.2,0.6,0.2,1.3,0,1.9c-0.1,7.9-0.3,15.8-1,23.6
			c-1.7,17.9-4.4,35.8-10,53c-3.1,9.4-7.7,18.5-10.4,28c-1.9,7-2.2,14.2-3.3,21.4c2.4,19.7-0.3,42.8,9.6,59.8
			c12.5,21.3,41.7,21.8,63.9,23.9c23.8,2.3,47.7,2.9,71.6,2.4c15.3-0.3,31-1.9,46.4-1.3c21.9-4,44-5.1,65.2-13.3
			c12.2-4.7,25.5-9.6,35.9-17.8c6.5-5.2,10.5-10.5,13.5-16.7c3.1-17,7.8-33.3,7.9-51c0.2-19.7-1.9-39.1-5.2-58.5
			C580.3,564.7,571.4,530.7,571.7,496.9z M406,400.8c-17.2,4.2-35.6-5.3-35.6-25.2c0-9.4,4.8-18.4,12.1-23.4
			c11.4-11.1,35.2-7.1,42.3,7.2C432.5,375.3,424.1,396.4,406,400.8z"/>
		<path fill="#007EA6" d="M279.9,777.1c0.6,11.6,5.6,21.9,6.7,33.2c0.5,5.2,1.2,11.6-2.1,16.1c-2.8,3.8-7,7.1-9.9,11
			c10.6,0,27.3-2.7,23.2-16.1c-1.6-5.3-3.6-10.2-5.8-15.2c-2.9-6.8-5.4-13.4-6.7-20.7c-2.3-13.3,5.8-24.6,14-34.1
			c-2.7-1.2-5.2-2.7-7.6-4.4C285.5,756,279.3,765.3,279.9,777.1z"/>
		<path fill="#FFFFFF" d="M412.8,355.8c-9.5-5.2-17-1.7-25.8,0.3c-7.6,4.2-13.1,11.1-10.1,21.1c4.3,14.5,18.3,24.2,32.9,15.2
			C421.8,385,428.2,364.2,412.8,355.8z"/>
		<path fill="#007EA6" d="M294.8,549.3c-35.9,23.2-53.2,59.1-63,100.7c-3.1,13-5.2,26.5-2.9,39.9c1.7,10.2,4.1,20.2,5,30.5
			c1.2,13.9-4.2,27-4.4,40.5c1.7-4.6,3.5-9.2,5.5-13.7c0.6-1.3,2.8-2.3,4.1-1.3c4.5,3.3,9,6.4,13.6,9.4l-4.4-17.3
			c-0.6-2.4,1.6-4.4,3.9-4.1c3.4,0.6,6.7,0.7,9.9,0.3c-9.3-7.1-13.7-17.3-14.4-29.8c-1.1-19.2-3.2-38.9-0.5-58.1
			c4.1-29.1,20.3-65.8,46.1-81.7c0.4-0.2,0.7-0.3,1.1-0.4C294.5,559.2,294.7,554.3,294.8,549.3z"/>
		<path fill="#007EA6" d="M352.8,817.5c2,5.1,3.7,10.7,2.1,16.1c-1.4,4.7-5.7,8.7-7.8,13.3c4.6-1.4,9.2-2.8,13.6-4.7
			c11.3-4.9,4.3-14.9,1.7-21.3c-3.8-9.3-6.7-18.2-7.6-28.3c-1-11,2.6-21.9,10.1-29.7c-3.7-0.2-7.4-0.6-11.1-0.9
			C337.9,778.5,345,797.4,352.8,817.5z"/>
		<path fill="#007EA6" d="M560,737.3c-3.1,1.6-6.1,3-8.8,4.2c10.2,6,25.9,8.2,27,22.3c1,13.6,0.3,27.3-0.9,40.9
			c-0.4,4.6-3.2,23.9,3.9,24.7c3.6,0.4,6.9,0.5,10.2,0.5c-6.9-6.2-9-13.8-7.2-25c1.9-11.9,9.9-34,3.1-44.6
			c-6.3-9.9-16.8-15.8-26.4-22.1C560.5,737.9,560.2,737.6,560,737.3z"/>
		<path fill="#007EA6" d="M498.4,758.4c-2.6,0.5-5.1,0.9-7.7,1.2c10.6,5,13.9,13.7,14.1,27.7c0.2,12.9-1.1,25.7-1.1,38.5
			c0,14,12.8,20.3,24.9,16.3c-7.4-7.5-18-7.7-17.6-21c0.7-21.7,4.7-45.9-12.5-62.5C498.4,758.6,498.4,758.5,498.4,758.4z"/>
		<path fill="#004963" d="M676,702.3c-9.3-4.8-18.8-8.9-28.6-12.3c4-3.3,8.3-5.8,13.5-7.8c2.1-0.8,3.6-3.9,1.7-5.8
			c-6.3-6.1-15.8-4.6-24-4.4c-15.4,0.4-29,0.2-40.4-10.7c0.2-17.2-1.7-34.6-3.6-49.6c-5.3-40.2-14.3-79.5-18.4-119.9
			c6.1,0.2,12.3,0.7,18.4,1.6c1,0.1,1.8-0.2,2.4-0.7c1.5,0.2,3.1-0.8,3-2.7c-1.2-44.9,0-93-12.8-136.4c-5.3-18-13.2-38-23.9-53.5
			c-8.3-12-27.2-15.6-41.1-17c2.6-14-1.1-28.8-13.2-37.8c-9.3-7-25.4-12.2-36.1-5.5c-3-15.1-17.6-24-33.3-21
			c-10.6,2-28.6,14-24.6,26.6c-10.9-2.4-24.9,7.8-30.9,15.5c-3.6,4.6-6.3,11.5-6.8,18.2c-37.6-8-84.8,7.7-95.1,47.3
			c-5.8,22.1-3.4,47.2-3.7,69.8c-0.4,25,8.3,48.4,10.6,73.2c0,0.5,0.3,0.6,0.6,0.7c1.2,12.6,3.1,25.3,4,37.8
			c0.9,11.7,1.3,23.4,1.2,35.1c-38,19-54,56.2-66.2,95.3c-6.7,21.3-8.3,41.8-4,63.7c3,15.2,3.3,28.1,0.3,43.3
			c-2,10.3-3,19.9,0.1,30.1c1,3.1,5,2.7,5.9-0.3c2.1-7.5,4.7-14.7,7.6-21.8c5.7,4.1,11.4,8.1,17.4,11.8c2.3,1.5,5.2-1.4,4.6-3.8
			c-1.8-7-3.5-13.9-5.3-20.9c5.2,0.2,10.1-0.5,15.4-2.1c2.3-0.7,3.5-4.6,1-5.9c-17.7-8.9-17.9-25.3-18.8-42.8
			c-0.7-12.9-1.7-25.8-0.6-38.7c2.3-27,18-63.5,41.4-79.3c-1.7,19.7-6,39.1-12.5,57.7c-4.6,12.9-10,24.3-9.3,37.8
			c-0.8,20.3,0.5,43.5,7.2,62.4c2.2,6.1,5.4,10.8,9.4,14.5c-10.1,10.8-16.3,23.6-14.4,39.1c1.2,10,4.2,19.4,6.3,29.1
			c2.4,11.5-10.6,18.3-14.3,27.5c-0.6,1.5,0.4,4,2.2,4.1c12.7,1.1,35.1,0.2,37.5-15.6c1.2-8.1-4.7-18.9-7.8-26
			c-8.2-19.1-7.1-31.9,7.2-47.9c0.2-0.2,0.3-0.5,0.5-0.8c6.7,2.2,13.9,3.6,20.9,4.9c6.8,1.2,13.6,2.1,20.4,2.8
			c-7,6.2-10.1,17.2-9.3,26.2c1.2,13.3,6.6,24.7,10.8,37.2c3.4,10.1-9.1,17.5-9.4,27.5c-0.1,2.3,2,4,4.2,3.3
			c10-3.1,32.9-6.7,30.8-21.9c-3.4-24.9-24.3-46.5-1.7-69.6c0.2-0.3,0.4-0.5,0.6-0.8c8.9,0.4,17.9,0.7,26.8,0.8
			c24.8,0.3,51.6,1.2,76.2-3.4c1.3,0,2.7-0.1,4-0.1c0.2,0.4,0.6,0.7,1.1,0.9c10.3,3.9,16.8,5.7,17.5,20.6c0.4,7.6,0.1,15.3-0.1,22.9
			c-0.3,11.3-3,23.2,0.6,34.1c4.5,13.6,27.1,12.9,37,7.5c1.5-0.8,2.5-3.4,1.5-5c-3.4-5.1-6.7-8.4-12.2-11.3
			c-11.2-5.9-6.8-21.6-6.5-32.4c0.4-14.9-2.7-29.7-12.2-41.1c13.7-3.2,27.2-8,39.2-12.9c0,0.1,0.1,0.1,0.1,0.2
			c5.6,6.2,13.3,8.3,20.4,12.2c11.5,6.4,5.2,38.4,4.2,48.7c-1,9.8-1.5,20.1,3.6,28.8c3.9,6.6,22.6,3.2,28.1,2.4c3-0.4,5.4-5.1,2-6.8
			c-26.4-13.6-4.9-40.8-8.3-62.9c-2.4-15.7-15.9-25.5-29.2-32.8c12.1-7.5,23.7-18,25.1-30.8c1.6-4.2,2.7-8.6,3.7-13.1
			c10.9,3.6,23.5,6.4,27.3,19.1c1.9,6.4,4.2,12.5,6.8,18.6c1.6,3.9,6.1,0.7,6.5-2.1c0.8-5.9,2-11.6,3.4-17.3
			c11.6,1.1,23.2,1.5,34.8,1.1C677.1,708.9,679.1,703.9,676,702.3z M293.1,564.6c-25.8,15.9-42,52.6-46.1,81.7
			c-2.7,19.2-0.6,38.8,0.5,58.1c0.7,12.5,5.1,22.7,14.4,29.8c-3.3,0.4-6.6,0.4-9.9-0.3c-2.2-0.3-4.5,1.7-3.9,4.1l4.4,17.3
			c-4.6-3-9.2-6.1-13.6-9.4c-1.3-0.9-3.5,0-4.1,1.3c-2,4.5-3.8,9.1-5.5,13.7c0.3-13.5,5.6-26.6,4.4-40.5c-0.9-10.3-3.2-20.3-5-30.5
			c-2.3-13.4-0.1-26.9,2.9-39.9c9.8-41.6,27.1-77.6,63-100.7c-0.1,5-0.3,9.9-0.6,14.9C293.8,564.2,293.5,564.3,293.1,564.6z
			 M285.3,785.4c1.2,7.3,3.8,13.9,6.7,20.7c2.2,5.1,4.2,9.9,5.8,15.2c4,13.4-12.7,16.1-23.2,16.1c2.9-3.9,7.2-7.2,9.9-11
			c3.3-4.5,2.6-11,2.1-16.1c-1.1-11.3-6.1-21.6-6.7-33.2c-0.6-11.7,5.7-21,11.8-30.2c2.3,1.7,4.9,3.1,7.6,4.4
			C291.1,760.8,283,772.1,285.3,785.4z M354.8,792.6c0.9,10,3.8,19,7.6,28.3c2.6,6.4,9.6,16.4-1.7,21.3c-4.4,1.9-9,3.3-13.6,4.7
			c2.2-4.6,6.5-8.6,7.8-13.3c1.6-5.5-0.1-11.1-2.1-16.1c-7.8-20-14.9-39,1-55.5c3.7,0.3,7.4,0.7,11.1,0.9
			C357.4,770.7,353.8,781.7,354.8,792.6z M511,821.2c-0.5,13.3,10.2,13.5,17.6,21c-12.1,4-24.9-2.3-24.9-16.3
			c0-12.8,1.3-25.6,1.1-38.5c-0.3-14-3.5-22.8-14.1-27.7c2.6-0.3,5.1-0.7,7.7-1.2c0.1,0.1,0.1,0.2,0.2,0.2
			C515.7,775.3,511.7,799.5,511,821.2z M587.2,760.2c6.8,10.6-1.2,32.7-3.1,44.6c-1.8,11.2,0.3,18.8,7.2,25
			c-3.3,0.1-6.6-0.1-10.2-0.5c-7.2-0.8-4.3-20.1-3.9-24.7c1.1-13.6,1.9-27.2,0.9-40.9c-1-14.1-16.8-16.3-27-22.3
			c2.8-1.2,5.7-2.6,8.8-4.2c0.2,0.3,0.5,0.6,0.9,0.9C570.5,744.4,580.9,750.3,587.2,760.2z M583.2,707.2c-3,6.2-7,11.5-13.5,16.7
			c-10.3,8.2-23.7,13.1-35.9,17.8c-21.2,8.2-43.3,9.3-65.2,13.3c-15.4-0.6-31.1,1-46.4,1.3c-23.9,0.5-47.8-0.1-71.6-2.4
			c-22.2-2.2-51.4-2.6-63.9-23.9c-9.9-17-7.2-40.1-9.6-59.8c1.1-7.2,1.4-14.4,3.3-21.4c2.6-9.5,7.3-18.6,10.4-28
			c5.6-17.1,8.3-35.1,10-53c0.7-7.9,1-15.7,1-23.6c0.2-0.6,0.2-1.3,0-1.9c0-11.6-0.5-23.2-1.4-34.7c-1.4-17.6-2.8-36.3-7.1-53.6
			c-0.3-10.7-4-21.5-6.4-31.8c-5-21.5-1.6-46.1-1.1-68c0.5-23.4,4.5-45.3,26.1-58.2c19.9-11.8,43.3-11.8,65.6-11.6
			c0.5,3.5,1.8,6.7,4.3,9.2c1.1,1.1,3.1,0.1,3-1.4c-0.8-10.8-2.2-19.6,5-28.8c3.7-4.7,9-7.7,14.5-9.9c4.2-1.7,8.7-2,12.6-4.1
			c0.1,0.1,0.1,0.2,0.2,0.3c0.5,0.6,1.6,0.3,1.9-0.3c1.3-2.9,1.8-5.7,2.5-8.8c1.9-8.2,8.9-12.5,16.5-14.6c16-4.5,25.2,4.9,30.3,18.2
			c-0.9,2,0.3,4.9,3,4c13.4-4.5,24.2-5.1,35.6,4.7c5,4.3,7.8,10.3,9.4,16.6c1.5,5.7-0.4,11.1,0.3,16.6c-0.2,0.8-0.3,1.6-0.5,2.4
			c-0.5,2.2,1.8,3.6,3.5,2c5.5-5.4,28.4,6.1,32.8,8.4c8.5,4.6,12.5,16.7,16.4,24.9c8,16.8,14.4,33.6,17.9,51.9
			c7.1,36.4,5.8,74.6,8,111.6c-56-7.8-109.5,15.5-165.1,17.6c-2.8,0.1-3.6,4.1-1.7,5.3c0.1,0.4,0.3,0.8,0.6,1.2
			c21.1,21.7,56.4,27,85.3,26.1c26.4-0.9,47.8-16.9,58-40.6c-0.3,33.8,8.6,67.7,14.2,100.8c3.3,19.4,5.3,38.8,5.2,58.5
			C591,673.9,586.3,690.2,583.2,707.2z M455,508.5c5.1-0.7,10.1-1.4,15.1-2.3c-0.6,1.3-1,2.7-1.6,4.1c-1.2,3.2-2.5,6.3-3.9,9.4
			c-1.7-2.3-3.4-4.6-5.3-6.7C458,511.6,456.6,509.9,455,508.5z M458.6,521.1c-7.2-2.9-14.2-6.5-21-10.9c4.1-0.3,8.2-0.7,12.3-1.1
			c1,2.6,2.9,4.5,4.7,6.7C456,517.5,457.2,519.4,458.6,521.1z M475.1,509.4c2.2,2.8,4.6,5.6,6.8,8.4c3,3.8,5.7,9.2,10,11.7
			c-8.1-0.9-15.9-2.4-23.4-4.8C470.8,520.1,473.7,514.7,475.1,509.4z M486.3,513.1c-2.4-2.9-5-5.8-7.9-8.3
			c6.5-1.2,12.9-2.4,19.4-3.7c-2,6.6-3.7,13.4-5.5,20.1C490.1,518.7,488.2,515.4,486.3,513.1z M496.9,527.5
			c2.2-7.5,4.6-15.2,6.3-22.9c4.6,6.7,10.8,12.7,15.6,19.1c1.7,2.2,4.8,0.2,5.5-1.8c1.7-5.5,3.6-10.9,5.6-16.4
			c0.7-1.9,1.8-4.1,2.7-6.3c2.5,3,6.1,5.5,8.9,7.8c3.1,2.6,6.6,6.3,10.6,7.5c-0.7,0.8-1.4,1.6-2.1,2.4
			c-11.9,11.8-29.7,13.5-45.4,13.2c-3.2-0.1-6.4-0.2-9.6-0.5C495.8,529.4,496.6,528.6,496.9,527.5z M506.2,499.5
			c6.8-1.3,13.7-2.5,20.5-3.6c-0.9,2-1.5,4.3-2.3,6.3c-1.6,4-3,8-4.3,12.1C516,508.9,511.5,503.3,506.2,499.5z M545.3,500.8
			c-2.5-2-5.1-4.7-8-6.5c10.2-1.4,20.4-2.3,30.7-2.4c-3.8,6.1-7.4,12.1-11.6,17.8C553.7,506,548.7,503.6,545.3,500.8z M637.6,700.6
			c-1.9-0.2-3.8,0.8-4.3,2.8c-0.8,2.9-1.4,5.8-2,8.7c-2.1-6.4-4.4-12.8-8.8-17.9c-5.5-6.3-17.8-9-26-11.6c0.7-4.5,1.2-9,1.4-13.5
			c4,4.2,9.1,6.6,15.3,8.5c10.4,3.3,28.8-2.3,39.6,1.2c-5.2,2.7-9.9,6.1-14.2,10.4c-1.9,1.9-1.3,5,1.2,5.8c6.2,2.1,12.3,4.4,18.3,7
			C651.4,701.8,644.5,701.3,637.6,700.6z"/>
		<path fill="#004963" d="M424.7,359.4c-7-14.3-30.9-18.3-42.3-7.2c-7.3,5-12.1,14-12.1,23.4c0,19.9,18.4,29.4,35.6,25.2
			C424.1,396.4,432.5,375.3,424.7,359.4z M409.7,392.5c-14.6,9-28.5-0.7-32.9-15.2c-3-10,2.5-17,10.1-21.1c8.7-2,16.3-5.5,25.8-0.3
			C428.2,364.2,421.8,385,409.7,392.5z"/>
	</g>
</g>
</svg>
