<?xml version="1.0" encoding="utf-8"?>
<!-- Generator: Adobe Illustrator 18.0.0, SVG Export Plug-In . SVG Version: 6.00 Build 0)  -->
<!DOCTYPE svg PUBLIC "-//W3C//DTD SVG 1.1//EN" "http://www.w3.org/Graphics/SVG/1.1/DTD/svg11.dtd">
<svg version="1.1" xmlns="http://www.w3.org/2000/svg" xmlns:xlink="http://www.w3.org/1999/xlink" x="0px" y="0px"
	 viewBox="1400 150 800 800" enable-background="new 0 0 2272 1872" xml:space="preserve">
<g id="Background">
	<rect x="-12.7" y="-29.1" fill="#FFFFFF" width="2297.7" height="1919.7"/>
</g>
<g id="Object">
	<ellipse fill="#E6E7E8" cx="1782.1" cy="837" rx="268" ry="56"/>
	<g>
		<path fill="#FFFFFF" d="M1719.6,370c-5.9,3.3-10.2,9.2-8.5,16.2c2.2,8.6,10.5,15.8,19.8,12.4c9.3-3.4,15.3-16,9.7-25.2
			C1735.5,364.9,1727.2,368.3,1719.6,370z"/>
		<path fill="#FFFFFF" d="M1813.5,365.4c-8.1-2.2-12.1,1.8-18.5,4.6c-1.7,2.3-3.1,4.8-3.6,7.7c-2.3,12,9.3,19.6,20.5,16.2
			C1822.7,390.5,1826.4,368.9,1813.5,365.4z"/>
		<path fill="#9AB72D" d="M1637.7,484.7c1.1-5.9,2-11.9,2.7-17.9c0.4-3.4,0.6-6.9,0.9-10.3c-20.2,23-54.6,41.6-84.7,27.1
			c-22.5-10.9-33.5-36.8-22.2-58.5c-5.6,1.5-10.8,3.6-16.1,6.8c-1.5,0.9-3.6,0.6-4.4-1.1c-3.8-7.8-9-13.5-15.9-17.8
			c1.8,8.6,5.4,16.3,11.1,23.6c1.9,2.4,0.3,5.5-2.6,5.9c-2.7,1.7-5.3,3.4-8,5.1c8.3,1.4,15.8,4.6,23.2,9.9
			c9.8,7.1,14.4,19.1,23.4,26.9c25.4,21.7,58.9,17.5,86.7,3.4c0.2-0.5,0.5-0.9,0.9-1.1c1.4-0.8,2.7-1.4,4.2-1.9
			C1637.2,484.7,1637.5,484.7,1637.7,484.7z"/>
		<path fill="#769021" d="M1736.8,573.7c9.9,3.6,20.1,6.2,29.6,8.2c-1.1,0-2.3-0.6-2.9-1.7c-3.7-6.4-7.7-12.4-12-18.4
			C1746.9,566.2,1742,570.1,1736.8,573.7z"/>
		<path fill="#9AB72D" d="M2058.1,434.1c-1.7,0.1-3.3-1.1-3.6-2.8c-1.3-8.3-3.7-15.8-7.2-23c-2.2,6-4.5,12-6.7,18
			c-0.6,1.7-2.5,3.7-4.6,3c-4.3-1.5-8.4-2.4-12.5-2.8c14.8,16.9-3.4,50.8-22,59.6c-14.8,7-32.3,8.6-47.7,1.7
			c-7.3-3.2-14.8-7.6-19.5-13.6c-0.4,5.8-0.8,11.5-1.1,17.3c0.3,0,0.7,0,1.1,0.2c31.1,12.4,78.6,13.2,97.2-20.1
			c4.1-7.4,8.1-22.7,15.9-27c8.5-4.7,20.1-3.3,27.2-9.8C2069,433.9,2063.7,433.7,2058.1,434.1z"/>
		<path fill="#F1F2F2" d="M1733.7,567.7c4.6-3.2,8.9-6.8,12.9-10.6c-5.9,0.5-11.9,0.8-17.9,0.9
			C1730.4,561.2,1732,564.4,1733.7,567.7z"/>
		<path fill="#F1F2F2" d="M1802.9,562.9c0,0,0.1-0.1,0.2-0.1c0.3-5.8,0.5-11.5,0.7-17.3c-6.7,2.3-13.5,4.2-20.4,5.9
			c4.3,6.3,8.8,12.4,13.6,18.3C1798.5,567.3,1800.4,565.2,1802.9,562.9z"/>
		<path fill="#F1F2F2" d="M1766.3,570.4c2.4-5.6,4.7-11.2,6.9-16.9c-5.5,1-11.1,2-16.7,2.6C1760,560.8,1763.2,565.5,1766.3,570.4z"
			/>
		<path fill="#769021" d="M1769.7,580c-0.6,1.3-1.8,1.9-3,2c0.3,0.1,0.7,0.2,1,0.2c6.7,1.4,13.5,2.7,20.4,3.5
			c4.8,0.6,9.7,1.1,14.5,1.3c-0.3-1.2-0.6-2.5-0.9-3.7c0.3-3.2,0.4-6.3,0.6-9.5c-0.8,1.3-1.6,2.7-2.1,4.2c-1,2-4.3,3-5.8,1
			c-5.5-6.8-10.6-13.8-15.6-21C1776,565.5,1773,572.8,1769.7,580z"/>
		<path fill="#769021" d="M1721.5,558c-5.3,0-10.5-0.2-15.8-0.5c6.4,4.9,13.7,9,21.4,12.4C1725.2,565.9,1723.3,562,1721.5,558z"/>
		<path fill="#B2D235" d="M1937.2,279.9c0-1.5,1.3-2.5,2.6-2.6c0.1-0.1,0.3-0.2,0.4-0.3c11.9-5.5,21.9-11.2,29.6-21.1
			c-10,0.5-21.3-0.9-30.5-3.8c-1.1,0.7-2.2,1.3-3.4,1.8c-2.1,0.9-2.8-1.7-2.2-3.1c0.5-1.1,1.1-2,1.6-3c0.1-0.2,0.2-0.4,0.3-0.6
			c2.8-4.7,6.6-8.8,9-13.8c2.4-5.1,4-10.2,5-15.6c-13.3,6-28,11.5-42.5,12.3c-1,0.3-2,0.4-3.2,0.2c-0.7-0.2-1.2-0.9-1.2-1.7
			c0.3-4.4,3.7-7.9,4.6-12.3c1.1-5.2,1.9-10.5,2.4-15.9c-5.4,3.4-11.1,6.4-17.1,8.7c-7,2.6-13.7,4.7-19.6,9.2
			c-1,2.5-2.4,4.7-4.6,6.1c-1.3,0.8-2.8,0.2-3.2-1.3c-1.7-6,2.3-12.6,2.1-19c-0.2-7-1.9-13.5-5-19.5c-3.6,10.3-9.6,22-18.4,27.4
			c0,0.3,0.1,0.6,0.1,0.9c0.2,2.2-3.1,4-4.6,2.2c-0.3-0.3-0.5-0.6-0.7-0.9c-0.4-0.1-0.6-0.5-0.7-0.9c-5.1-7.2-6.8-16.4-14-22.4
			c-7.2-5.9-16.1-6.6-25.1-7.1c4.7,9.9,4.1,21.4-1.5,31.1c0.1,0.3,0.2,0.5,0.3,0.7c1.3,3.7-3.6,7.7-5.8,3.7
			c-11.5-20.7-37.7-35.7-62-34.7c3.4,6,5.9,12.1,6.5,19.1c0.6,0.5,1.1,0.9,1.7,1.3c2.7,2.3-1.1,7.3-4.1,5.5
			c-11-6.7-21.3-15.9-34.1-18.8c-10.9-2.5-21.1-2.2-31.7-0.3c4.7,4.7,8.4,9.9,10.4,16.3c0.7,0.7,1.3,1.5,1.8,2.4c0.5,1,0,2.4-1,3
			c-0.5,0.8-1.8,1.2-2.4,0.1c0,0,0,0,0-0.1c-2.7-0.4-4.3-1.4-7.8-1.8c-5.4-0.7-10.8-0.5-16.2-0.2c-6.4,0.4-12.7,1-19.1,1.7
			c7.3,7.3,13.7,16.1,14.2,26.7c0,0,0,0.1,0.1,0.1c1,3.9-3.2,4.1-6,3.7c-4.8-0.6-9.3-0.4-13.6,0.4c24.9,9.2,22.5,48.8,22.3,71.4
			c-0.5,44.6,0.7,89.7-2.7,134.1c-1.6,20.8-5.7,40.8-9.1,61.3c-1.7,10.5-7.9,27.6,5.7,30.9c10.3,2.5,20.8,4.7,31.3,6.1
			c45.3,6.2,86.4,0.3,130.8-7.9c0.9-0.2,1.5,0.2,1.8,0.9c1.2,0.4,2.1,1.4,2.1,3.2c0,11.2-0.4,22.4-1.4,33.6
			c-0.4,4.4,0.5,12.1-3,15.8c-5.7,5.9-29.3-1.2-35.8-2.6c-17.1-3.7-34-8.8-49.9-16.3c-8.6-4.1-20.9-8-24.1-17.5
			c-8.2-0.7-16.3-1.7-24.3-2.9c-0.5,29.1-6,58.3-9.7,87.1c-4,30.8-7.9,61.6-11.8,92.4c-3.5,27.5-6.2,55.5-12.6,82.5
			c-3.6,15.2-14.6,22.7-27.2,28.9c11.4-1,22.8-1.1,34.2-0.1c-8.7-32.3,13.4-61.8,40.1-78.5c33.9-21.2,73.1-31.3,113-28.7
			c19.2,1.3,40,1.8,58.1,9c21.3,8.4,40.9,21.8,60.4,33.6c13.1,8,26.2,17,31.5,32c4.1,11.5-1.2,22.7-7.5,32.3
			c13.3,0.4,26.5,0.5,39.8,0.3c-9.4-5.9-17.3-13.7-22.4-23.8c-0.6-1.2,0.2-2.7,1.3-3.2c0-24.1-3.5-47.9-6.3-71.8
			c-2.6-22.2-4.7-44.5-8.1-66.5c-3.3-21.7-10.2-42.6-13.6-64.3c-3.3-20.8-4.9-41.7-5.5-62.7c-1.5-46.6,2-92.8,6.4-139.2
			C1936.6,368.6,1938.4,324.7,1937.2,279.9z M1729.5,405.1c-12.6,1.9-25.7-8.2-24.5-21.7c0.6-6.7,3.9-12.3,8.7-15.8
			c0.1-0.6,0.3-1.2,0.8-1.6c10.2-8.4,30.3-6.7,32.9,8.6C1749.6,387.8,1744.4,402.9,1729.5,405.1z M1826.3,388.6
			c-2.9,6.9-8,12-15.9,12.7c-15.9,1.5-32-9.7-24.8-27.3c2.8-6.8,7.7-14,15.1-16.4c3.4-1.1,9.3-2,12.2,0.7c5,1.2,9.5,3.6,12.1,6.8
			C1829.6,370.8,1829,382.3,1826.3,388.6z"/>
		<path fill="#485D08" d="M2082.5,427.7c-7.1-1.6-13.9-2.1-21.1-1.8c-2-10.4-5.6-19.8-11.2-28.9c-2-3.2-5.8-1.8-7,1.3
			c-2.8,7.5-5.5,15-8.2,22.5c-7.6-2.2-14.7-2.6-23-1.3c-3.8,0.6-5.3,5.9-1.2,7.4c12.6,4.5,11.9,18.9,8.9,29
			c-3.2,10.6-12.1,18.7-21.3,24.1c-16.5,9.6-60.8,5.3-62.9-19.9c4.9-59.1,12.6-118.1,7-176.9c15.9-3.3,29.5-16.1,37.4-29.7
			c1.2-2,0.1-5.8-2.8-5.3c-10.6,1.7-21.1-0.9-31.6-1.4c7.5-9.3,10.8-24,11.5-34.4c0.2-2.8-2.6-3.8-4.8-2.8
			c-12.6,6.2-25.6,9.5-38.8,13.5c3.6-9.4,3.6-24.6,3.7-29.1c0.1-2.5-2.6-4.3-4.8-2.8c-8.9,6.3-18.3,10.7-28.5,14.5
			c-3.1,1.2-6.1,2.4-8.8,4.2c0.2-3.1,0.1-6.1-0.1-8.6c-0.5-10.1-4.6-19.4-10.8-27.4c-1.7-2.2-5.2-0.4-5.8,1.9
			c-1.8,7.4-4.5,14.1-8.4,20.6c-2.1,3.5-4.7,6.5-7.2,9.6c-2.7-8.7-8.7-16.9-15.4-22.4c-9.4-7.7-23-6.5-34.4-7.1
			c-2.7-0.1-4.8,4.2-2.6,6.1c8.4,7.4,6.6,17.1,4.5,26.6c-12.9-22-46.9-35.1-70.4-30.8c-2.8,0.5-4.6,3.6-2.6,6.1
			c3.7,4.5,6,9.2,7.9,14.2c-20.7-14.5-43.1-18.8-68.9-12.1c-2.7,0.7-3.2,4.5-1,6c4.9,3.3,8.4,7.3,11.5,11.8
			c-2.3-0.4-4.8-0.4-7.3-0.5c-12.3-0.4-25,1.6-37.1,3.6c-2.8,0.5-4.5,4.2-1.8,6c9.2,6,13.5,14.8,18.5,23.7
			c-9.8-1.3-20.1-0.1-28.7,4.8c-2.4,1.4-1.5,5.4,1.1,5.2c0.1,0,0.1,0,0.2,0c34.2-0.2,29.5,45.5,29,68.3c-0.5,25.8-1,51.6-1.4,77.4
			c-0.3,18.6-0.6,37.1-1.8,55.6c-0.5,0.1-1,0.3-1.5,0.8c-17.3,17.1-35.5,31.6-61,32.1c-29.3,0.6-57.7-32.2-36-58.8
			c1.5-1.9,1.4-6.4-2.1-5.8c-8.4,1.3-15.9,3.8-23.2,7.7c-5.2-9.5-12.6-16.3-22.8-20.7c-2.8-1.2-5.1,1.2-4.8,4
			c1.1,10.9,4.7,20.4,10.6,29.2c-6.2,2-10.7,5.6-14.8,11.6c-1.5,2.2,0.1,5,2.7,5.1c34.9,1,41.2,37.7,70.9,48.6
			c26.1,9.5,52.3,3.9,76.2-8.6c-3,16.1-6.2,32-5.6,48.5c0,1.5,0.7,2.7,2.2,3.1c10.8,3,22.1,5.5,33.6,7.6c-0.1,0.3-0.2,0.6-0.2,1
			c-0.5,25.4-5.1,50.8-8.3,75.9c-3.5,26.9-7,53.9-10.5,80.8c-3.6,27.5-6.8,55-11.3,82.3c-2.3,13.8-3.2,31.5-16.6,39.4
			c-10,5.9-20.9,10.5-31.2,15.6c-2.8,1.4-2.2,7.1,1.4,6.5c20-3.3,39.6-3.6,59.7-3.5c0.8,0,1.5-0.4,2-1c1.3-0.7,2.1-2.1,1.6-3.8
			c-11.8-35.4,15.9-62.6,43.9-78.9c29-17,62.6-23.7,95.9-22.9c17.1,0.4,34.7,2.1,51.4,5.9c17.1,3.8,32,14,46.8,22.9
			c13.1,7.8,26.8,15,38.6,24.7c4.9,4,8.7,9,11.6,14.7c6.1,12-2.9,24.5-9.5,33.9c-1.7,2.3,0.2,5.3,2.8,5.4c20,0.9,40,0.7,60.1-0.3
			c2.8-0.1,5.2-5.2,1.9-6.5c-12.7-5.1-22.1-12.9-31-22.7c0-0.1,0.1-0.3,0.1-0.4c1-42.7-7.1-86.1-12.1-128.4
			c-2.6-21.6-7.2-42.4-12.3-63.6c-6.1-25.4-7.7-51.7-8.7-77.7c-0.7-17.3-0.4-34.6,0.5-51.9c28.9,10.9,64.7,12,90.7-6.6
			c12.2-8.7,18.3-24.4,24.8-37.3c4.3-8.5,17.3-7.2,24.6-11c5.7-2.9,9.2-6,12-11.7C2085.7,431.5,2085.3,428.3,2082.5,427.7z
			 M1632.8,486.7c-0.4,0.2-0.7,0.6-0.9,1.1c-27.8,14.1-61.3,18.3-86.7-3.4c-9.1-7.8-13.7-19.7-23.4-26.9c-7.3-5.3-14.8-8.5-23.2-9.9
			c2.7-1.7,5.3-3.4,8-5.1c2.8-0.4,4.4-3.6,2.6-5.9c-5.8-7.3-9.3-15-11.1-23.6c6.9,4.3,12.1,10,15.9,17.8c0.8,1.7,2.9,2,4.4,1.1
			c5.3-3.1,10.5-5.3,16.1-6.8c-11.4,21.7-0.3,47.6,22.2,58.5c30.1,14.5,64.6-4.1,84.7-27.1c-0.3,3.4-0.5,6.9-0.9,10.3
			c-0.6,6-1.6,12-2.7,17.9c-0.2,0-0.5,0-0.8,0.1C1635.5,485.3,1634.1,485.9,1632.8,486.7z M1932.4,413.2
			c-4.3,46.4-7.8,92.6-6.4,139.2c0.7,21,2.2,42,5.5,62.7c3.4,21.6,10.2,42.6,13.6,64.3c3.4,22.1,5.5,44.4,8.1,66.5
			c2.8,23.9,6.3,47.8,6.3,71.8c-1.1,0.5-1.9,2-1.3,3.2c5.2,10.1,13.1,17.9,22.4,23.8c-13.3,0.2-26.5,0.2-39.8-0.3
			c6.3-9.6,11.6-20.9,7.5-32.3c-5.3-15-18.5-24-31.5-32c-19.5-11.9-39.1-25.2-60.4-33.6c-18.1-7.2-38.9-7.7-58.1-9
			c-39.9-2.6-79.1,7.5-113,28.7c-26.7,16.7-48.7,46.2-40.1,78.5c-11.4-1-22.8-0.9-34.2,0.1c12.6-6.1,23.6-13.7,27.2-28.9
			c6.4-27,9.1-55,12.6-82.5c3.9-30.8,7.9-61.6,11.8-92.4c3.7-28.8,9.1-58,9.7-87.1c8,1.3,16.1,2.2,24.3,2.9
			c3.2,9.4,15.4,13.4,24.1,17.5c15.8,7.5,32.8,12.6,49.9,16.3c6.5,1.4,30.2,8.5,35.8,2.6c3.5-3.6,2.6-11.4,3-15.8
			c1-11.2,1.3-22.4,1.4-33.6c0-1.8-0.9-2.9-2.1-3.2c-0.3-0.6-0.8-1-1.8-0.9c-44.5,8.2-85.5,14.1-130.8,7.9
			c-10.5-1.4-21-3.6-31.3-6.1c-13.6-3.2-7.5-20.4-5.7-30.9c3.4-20.5,7.5-40.5,9.1-61.3c3.4-44.5,2.2-89.6,2.7-134.1
			c0.2-22.6,2.7-62.2-22.3-71.4c4.4-0.8,8.8-1,13.6-0.4c2.8,0.4,7,0.2,6-3.7c0,0,0-0.1-0.1-0.1c-0.5-10.5-6.9-19.3-14.2-26.7
			c6.3-0.8,12.7-1.4,19.1-1.7c5.4-0.3,10.8-0.5,16.2,0.2c3.6,0.4,5.1,1.4,7.8,1.8c0,0,0,0,0,0.1c0.7,1.1,1.9,0.7,2.4-0.1
			c1-0.5,1.6-2,1-3c-0.5-1-1.1-1.7-1.8-2.4c-2-6.4-5.7-11.6-10.4-16.3c10.6-1.9,20.8-2.1,31.7,0.3c12.9,2.9,23.2,12.2,34.1,18.8
			c3,1.8,6.8-3.2,4.1-5.5c-0.5-0.5-1.1-0.9-1.7-1.3c-0.5-7-3-13.1-6.5-19.1c24.3-1,50.5,14,62,34.7c2.2,4,7.1,0,5.8-3.7
			c-0.1-0.3-0.2-0.5-0.3-0.7c5.5-9.8,6.1-21.2,1.5-31.1c8.9,0.5,17.8,1.2,25.1,7.1c7.3,6,8.9,15.2,14,22.4c0.1,0.4,0.3,0.8,0.7,0.9
			c0.2,0.3,0.4,0.6,0.7,0.9c1.6,1.8,4.8,0,4.6-2.2c0-0.3-0.1-0.6-0.1-0.9c8.9-5.4,14.9-17.1,18.4-27.4c3.1,6,4.7,12.6,5,19.5
			c0.2,6.4-3.8,12.9-2.1,19c0.4,1.4,1.9,2.1,3.2,1.3c2.2-1.4,3.7-3.5,4.6-6.1c5.9-4.5,12.6-6.6,19.6-9.2c6-2.3,11.7-5.3,17.1-8.7
			c-0.5,5.3-1.3,10.6-2.4,15.9c-1,4.4-4.3,7.8-4.6,12.3c-0.1,0.7,0.4,1.5,1.2,1.7c1.2,0.2,2.2,0.1,3.2-0.2
			c14.5-0.8,29.2-6.3,42.5-12.3c-0.9,5.4-2.6,10.5-5,15.6c-2.4,5-6.2,9.1-9,13.8c-0.2,0.2-0.2,0.4-0.3,0.6c-0.6,1-1.2,2-1.6,3
			c-0.6,1.4,0.2,4,2.2,3.1c1.2-0.5,2.3-1.1,3.4-1.8c9.3,2.8,20.5,4.2,30.5,3.8c-7.7,9.9-17.7,15.5-29.6,21.1
			c-0.1,0.1-0.3,0.2-0.4,0.3c-1.3,0.1-2.7,1.1-2.6,2.6C1938.4,324.7,1936.6,368.6,1932.4,413.2z M1705.7,557.5
			c5.3,0.3,10.5,0.4,15.8,0.5c1.8,4,3.7,7.9,5.6,11.9C1719.4,566.5,1712.1,562.4,1705.7,557.5z M1794.4,579.1c1.6,1.9,4.8,0.9,5.8-1
			c0.6-1.5,1.3-2.9,2.1-4.2c-0.2,3.2-0.4,6.3-0.6,9.5c0.3,1.2,0.6,2.5,0.9,3.7c-4.9-0.3-9.7-0.7-14.5-1.3
			c-6.8-0.8-13.6-2.1-20.4-3.5c-0.3-0.1-0.7-0.2-1-0.2c1.2,0,2.4-0.7,3-2c3.3-7.2,6.3-14.5,9.1-21.9
			C1783.8,565.3,1788.9,572.3,1794.4,579.1z M1783.3,551.4c6.9-1.6,13.8-3.6,20.4-5.9c-0.2,5.8-0.4,11.6-0.7,17.3
			c-0.1,0-0.1,0-0.2,0.1c-2.5,2.2-4.4,4.4-6,6.8C1792.1,563.8,1787.6,557.7,1783.3,551.4z M1766.3,570.4c-3-4.9-6.3-9.7-9.8-14.3
			c5.6-0.7,11.2-1.6,16.7-2.6C1771,559.2,1768.7,564.9,1766.3,570.4z M1763.5,580.2c0.6,1.1,1.8,1.6,2.9,1.7
			c-9.5-2-19.7-4.7-29.6-8.2c5.3-3.6,10.1-7.5,14.8-11.8C1755.8,567.8,1759.8,573.9,1763.5,580.2z M1733.7,567.7
			c-1.6-3.3-3.3-6.5-5-9.7c6-0.1,12-0.4,17.9-0.9C1742.5,560.9,1738.2,564.5,1733.7,567.7z M2047.2,444.5
			c-7.9,4.4-11.8,19.6-15.9,27c-18.5,33.3-66,32.5-97.2,20.1c-0.4-0.1-0.7-0.1-1.1-0.2c0.3-5.8,0.7-11.5,1.1-17.3
			c4.7,6,12.3,10.3,19.5,13.6c15.4,6.9,32.8,5.3,47.7-1.7c18.5-8.8,36.8-42.7,22-59.6c4.2,0.4,8.2,1.2,12.5,2.8c2.1,0.7,4-1.3,4.6-3
			c2.3-6,4.5-12,6.7-18c3.6,7.2,5.9,14.8,7.2,23c0.3,1.7,1.9,2.9,3.6,2.8c5.6-0.4,10.9-0.2,16.3,0.6
			C2067.3,441.2,2055.8,439.7,2047.2,444.5z"/>
		<path fill="#485D08" d="M1714.5,366c-0.5,0.4-0.7,1-0.8,1.6c-4.8,3.5-8.1,9.2-8.7,15.8c-1.2,13.5,11.9,23.6,24.5,21.7
			c14.9-2.3,20.1-17.3,17.9-30.5C1744.8,359.4,1724.7,357.6,1714.5,366z M1730.9,398.6c-9.3,3.4-17.6-3.8-19.8-12.4
			c-1.8-7,2.6-12.9,8.5-16.2c7.6-1.7,15.9-5,21,3.4C1746.2,382.6,1740.2,395.2,1730.9,398.6z"/>
		<path fill="#485D08" d="M1812.8,358.4c-2.9-2.7-8.7-1.8-12.2-0.7c-7.4,2.4-12.3,9.6-15.1,16.4c-7.2,17.5,8.9,28.8,24.8,27.3
			c7.9-0.8,12.9-5.8,15.9-12.7c2.7-6.3,3.3-17.8-1.3-23.4C1822.4,362.1,1817.8,359.7,1812.8,358.4z M1811.9,393.8
			c-11.2,3.4-22.7-4.2-20.5-16.2c0.5-2.8,1.9-5.4,3.6-7.7c6.4-2.7,10.4-6.7,18.5-4.6C1826.4,368.9,1822.7,390.5,1811.9,393.8z"/>
	</g>
</g>
</svg>
