<?xml version="1.0" encoding="utf-8"?>
<!-- Generator: Adobe Illustrator 18.0.0, SVG Export Plug-In . SVG Version: 6.00 Build 0)  -->
<!DOCTYPE svg PUBLIC "-//W3C//DTD SVG 1.1//EN" "http://www.w3.org/Graphics/SVG/1.1/DTD/svg11.dtd">
<svg version="1.1" xmlns="http://www.w3.org/2000/svg" xmlns:xlink="http://www.w3.org/1999/xlink" x="0px" y="0px"
	 viewBox="660 140 800 800" enable-background="new 0 0 2272 1872" xml:space="preserve">
<g id="Background">
	<rect x="-12.7" y="-29.1" fill="#FFFFFF" width="2297.7" height="1919.7"/>
</g>
<g id="Object">
	<ellipse fill="#E6E7E8" cx="1077.1" cy="837" rx="268" ry="56"/>
	<g>
		<path fill="#F1F2F2" d="M840.3,717.7c0.3,2.9,0.4,5.8,0.6,8.7c0.2,2.7,0.6,5.5,0.8,8.2c4.1-4.4,8.6-8.5,13.5-11.9
			C850.1,721.5,845.1,719.8,840.3,717.7z"/>
		<path fill="#C40452" d="M932.3,833.1c0,2.2-2.1,3.9-4.2,3.6c-4-0.7-7.9-1.6-11.7-2.6c6.5,6.1,14.9,10.1,23.6,12.9
			c8.9,2.9,7.3-10.1,7-16.2c-0.2-4.7-0.7-9.5-0.4-14.1c0.8-12.2,4.7-22.8,12.1-31.7c-4.6,1.4-9.3,2.5-14.1,3.4
			C934.2,800.2,932.4,817.7,932.3,833.1z"/>
		<path fill="#C40452" d="M1018.2,764c-2-0.2-3.9-0.5-5.9-0.9c-0.7,10.9-1.5,21.9-2.3,32.8c-0.7,9.7-0.8,16.3,6.7,23.6
			c4,3.9,8.7,7.7,12.4,12c5.7,6.7-0.1,13.2-5.9,18.8c11.1,0.4,21.6-2.3,31.3-8l-18.7-19.4c-5.4-5.6-13.2-11.4-17.2-18.2
			C1012.2,794.2,1017.1,775.8,1018.2,764z"/>
		<path fill="#C40452" d="M1124.2,813.3c0.5,6.7,3.2,18.1-2.3,23.8c-2.7,2.8-7.4,4.3-12.4,5.4c7.3,2.1,14.8,3.1,22.7,3
			c-0.1-11.5-0.2-23,0.1-34.6c0.2-7.4-0.8-16.6,1.8-23.7c6.7-18.8,16.5-35.3,21-54.9c-2.6,1-5.3,2-7.9,2.9
			C1135.7,760.7,1122.1,784.1,1124.2,813.3z"/>
		<path fill="#ED1164" d="M1301.9,290.7c-0.5-0.3-0.9-0.6-1.2-1.2c-18.5-34.1-59.9-59.4-94.1-75.6c-35.8-16.9-75.3-27.5-115.1-26.2
			c-77.6,2.6-154.6,44.7-181.4,120.9c-12.9,36.5-16.2,82.4,5.1,116.8c22.1,35.7,63.3,53.6,104.2,55.6c39.7,1.9,87.3-1.2,110-39.1
			c10.2-17.1,16.4-38.3,11.6-58.2c-4.6-19.2-17.8-35.7-37.2-36.7c7.3,6.5,14.6,13,21.8,19.4c1.5,1.4,0.9,3.3-0.4,4.5
			c0,0.6,0,1.1-0.3,1.6c-2.1,3.1-4,4.2-7.3,6.1c-0.4,0.2-5.6,3.6-5.9,3.1c0.8,1.2,1.5,2.5,2.1,3.8c2.4,5.5,2.2,11.8,4.7,17.1
			c0.2,0.5,0.3,1,0.3,1.5c3,1.8,0.6,7.9-3.6,7.4c-3.2-0.4-21.2-4.5-22.8-0.9c-2.3,5.2-4.2,10.5-6.6,15.6c0.1,2.8-2.8,5.9-5.7,4.2
			c-4.8-2.7-17-11.4-21.6-6.7c-4.7,4.9-9.3,9.9-14.3,14.5c-1.7,1.5-3.5,1.2-4.4,0c-0.4-0.3-0.8-0.7-1.1-1.2c-3-5-8.2-16-15-13.9
			c-5.8,1.8-11.6,3.9-17.6,4.7c-0.3,0-0.5,0-0.7-0.1c-1.1,0.4-2.4-0.4-2.8-1.6c-1.6-4.6,0.4-9.6,0.9-14.3c0.4-3.6,0.5-7.1,0.7-10.7
			c-9.1,0-18.4,0.4-27.4-0.7c-1.6-0.2-2-1.4-1.8-2.7c-0.2-0.6-0.2-1.4,0.1-2.2c3-8,6.4-15.8,10.2-23.5c-5.7-4.2-11.7-7.9-18-11.1
			c-0.6-0.3-0.9-0.7-1.1-1.1c-1.4-1.2-1.9-3.4,0-5.1c5.3-4.7,10.8-9,16.5-13.2c-3.3-6.9-6.6-14.4-7.6-21.9c-0.2-1.3,0.7-2.6,1.8-3
			c0.5-1.2,1.5-2.2,3.1-2.2c9.4,0.2,18.8,0.4,28.2,0.6c-1.2-9.8-1.9-20.4,0.9-29.6c0.3-1.1,1.7-1.8,2.8-1.6c0.1,0,0.2,0,0.3,0
			c5.4,0.4,10.7,1.2,15.8,3c4.2,1.5,8.2,3.5,12.5,4.2c0.4-8.2,0.8-16.4,1.2-24.6c0.2-3.9,3.6-3.7,5.3-2.2c0.4,0,0.9,0.1,1.3,0.4
			c2.3,1.5,20.3,16.7,22.2,14.3c4.8-6,8.4-12.9,11.3-19.9c0.6-1.5,2.3-2.9,3.9-2.3c1.4-1,3.1-1.3,4.3,0.2c2.9,3.8,5.6,7.7,8.1,11.8
			c3,4.7,3.3,6.7,9.2,6.1c8.8-0.9,18.2-2.8,27.1-2.2c1.8-0.5,3.9,0.4,3.9,3c0,7-0.5,13.9-1.5,20.8c4.7-1.1,9.5-2,14.3-2.3
			c4.6-0.2,10-1.1,14.1,1.3c2.5,0.1,3.8,3.5,1.8,5.7c-0.4,0.5-0.2,5.5-0.3,6.4c-0.2,2.5-0.4,5-0.7,7.5c-0.3,3-0.6,6-0.9,9
			c10.3,0,21.9,0,31.2,3.7c0.7,0.3,1.1,0.7,1.3,1.3c1.8,0.5,3.1,2.5,1.8,4.9c-3.4,5.9-6.9,11.6-10.3,17.4c-0.7,1.1-3,7.3-5.1,6.4
			c2,0.8,3.9,1.5,5.9,2.4c7.8,3.3,17.3,6.5,23.7,12.4c3.3-1.3,6.5,3,3.4,5.9c-4,3.7-6.9,8.3-11.2,11.6c-4.4,3.4-9.2,6.2-12.2,10.8
			c5.8,4.9,11.6,9.8,17.2,14.8c2.9,2.6,5.2,4.6,6.1,7.7c2.6,0.8,3.5,5.1,0.5,6.9c-5.6,3.4-11.4,6.5-17.3,9.3
			c-2.3,1.1-4.6,2.1-6.9,3.1c-3.7-0.2-4.1,0.9-1.4,3.6c0.5,1,1.1,2,1.6,3c3.4,6.8,8.4,16.5,8.1,24.6c0.1,0.5,0,1.1-0.1,1.6
			c0,0.1,0,0.3,0,0.4c-0.2,1-0.9,1.8-1.8,2.2c-0.5,0.3-1.1,0.6-1.9,0.6c-8-0.1-15.9-0.8-23.7-2.5c0.9,10.5,1.7,23.3-2.1,32.8
			c1.1,2.6-2.1,6.7-5.4,5.2c-7.8-3.5-15.7-6.6-23.8-9.4c0,7.7,0,15.6-1.1,23.1c1.3,1.3,0.8,3.1-0.6,4c0,0.2,0,0.3-0.1,0.5
			c-0.6,2.5-4.6,3.1-5.1,0.3c-10.5,0-22.6-5.2-32.6-8.6c-3.3,8.9-7.5,17.4-13.4,25c0.6,3.4-4.2,5.3-6.2,3.4l0,0
			c-0.1-0.1-0.1-0.1-0.2-0.2c-0.2-0.2-0.3-0.3-0.5-0.5c-3.9-4.5-7.4-9.2-11.9-13.1c-2.1-1.8-7.4-7.1-11.2-8.4
			c-3.6,8.4-5.8,17.4-13.9,22.6c-1.5,1.8-4.4,2.5-5.8,0.6c-3.3-4.3-6.8-8.6-10.6-12.5c-2.6-2.6-6.3-7.2-10.1-9.7
			c-0.6,5.1-1.7,10.1-3.7,14.8c-1,2.5-2,5.2-3.4,7.6c-0.5,0.9-1,1.8-1.6,2.6c0.1,3.8-5.4,6-7,2.5c0,0,0,0.1,0,0.1
			c-3.1-7-6.6-13.8-11.2-19.9c-1.9-2.5-6.3-9.5-10.3-12.6c-0.9,9.1-5.9,15.4-12.7,22.1c-0.4,3.5-5.9,5.2-7.1,0.9
			c-2-7-2.3-14.6-6.3-20.9c-2.9-4.5-6.6-8.1-11-10.7c-0.8,7.5-2,15.5-4.9,22.3c1.4,3.9-4.4,7.9-6.3,3.7
			c-7.9-17.8-21.5-31.1-39.2-38.3c2.4,10.6,2.9,22.8-0.7,32.4c-2.9,7.6-16.8,11.3-23.3,14.3c-31.1,14.6-55.7,33.1-63.6,68.5
			c-8.5,38.1,2.4,81.4,43.6,93.8c29.1,8.8,59.9,5.9,84.4-12.9c1.6-2.1,4.2-3.4,6.9-3.7c1.6-0.2,3.1,1.1,3.3,2.6
			c1.3,7.2,2.7,14.4,4,21.6c0.6,3.7,1,8.1-3.4,9.5c-4.1,1.3-10.2-2.1-13.9-3.6c-3-1.2-6.3-2.7-9.3-4.5c-0.6,5.3-1.4,10.5-2.7,15.7
			c-0.5,2-3.3,3.9-5.3,2.5c-6.7-4.6-13.7-9.1-20-14.3c-4.1,7.7-9.2,14.6-12.7,22.7c-1.1,2.5-4.7,2.5-6,0.3c-2.9-5.2-6-10.3-9.3-15.2
			c-1.8-2.7-3.8-5.4-5.3-8.3c-5.1,4.4-10.2,8.6-14.9,13.3c6.9,32.8,44.7,43.2,74.3,42.8c8.3-0.1,16.4-1,24.3-2.5
			c0.6-0.4,1.2-0.5,1.8-0.4c18.7-3.8,36.3-11.3,52.3-22.7c0.3-1.6,1.7-3,3.6-2.6c47.4,9.5,91.8-7.2,135.7-23.6c2.6-1,5.1-2,7.6-3
			c0.4-0.3,0.8-0.4,1.2-0.5c14.4-5.7,28.1-11.9,41.2-18.9c0.7-1,1.8-1.5,2.8-1.5c15.7-8.5,30.7-18.2,45.2-29.7
			c13.1-11.9,25.8-24.3,37.7-37.4c6.2-6.8,13.4-13.8,17.1-22.4c3.3-7.7,5.9-15.6,10-22.9c18.4-32.5,30-65.6,34.8-102.7
			c4.6-35.9,9.4-76.2,2.7-112C1332.3,346.9,1316.2,320,1301.9,290.7z M893.5,589c-0.8,9.9-11.2,23.2-22.4,20.6
			c-11.8-2.7-19.5-16.3-15.3-27.7c1.5-4.2,4.8-7.5,8.7-9.3c0.4-0.7,1-1.2,1.8-1.4C879.5,568.4,894.7,573.4,893.5,589z M919,610.2
			c-11.9-3.1-21.2-15.9-16.1-28.3c3.3-8.2,10.3-13.9,18.2-14.2c11.1-2.8,23.9,8.7,23.2,20.1C943.6,599.8,932.2,613.6,919,610.2z"/>
		<path fill="#C40452" d="M1201.2,711.9c-2.5,1.3-5.1,2.6-7.7,3.9c0.2,20.3-1.2,40.7-2.1,60.9c-0.6,13.4-3.7,26.8,7.4,36.9
			l24.1,22.1c1.9,1.8,0.8,5.1-1.1,6.4c-2.3,1.2-4.3,2.6-6.1,4.3c7.6-1.2,14.8-3.6,21.8-7c-8-11.1-17-20.7-26.8-30.4
			c-7-6.8-10.4-13.4-11.4-23.1C1196.8,761.9,1200.3,736,1201.2,711.9z"/>
		<path fill="#F1F2F2" d="M901.1,723.1c4.4,2.8,8.7,5.8,13,8.8c0.9-4.5,1.6-9,2.1-13.5C911.3,720.4,906.2,721.9,901.1,723.1z"/>
		<path fill="#F1F2F2" d="M888,725c-6.7,0.6-13.4,0.5-20-0.2c1.6,2,3,4.2,4.4,6.3c2.1,3.1,4.1,6.3,6.1,9.5
			C881.1,735,884.1,729.6,888,725z"/>
		<path fill="#FFFFFF" d="M918.8,574.1c-4.9,1.9-9,5.6-9.9,11.1c-1.3,8,3.7,16.6,12.2,17.9c8.8,1.4,19.1-8.7,16.2-18
			C934.2,575.5,926.8,575.9,918.8,574.1z"/>
		<path fill="#FFFFFF" d="M870.4,577.3c-5,1.1-9.3,4.2-9.3,10.2c0,5.9,5.9,16,12.9,15.4c7.1-0.6,13.5-8.3,13.2-15.5
			C886.8,577.7,877.9,577.5,870.4,577.3z"/>
		<path fill="#F1F2F2" d="M941.8,723.3c-0.1-0.5-0.2-1-0.3-1.5c-0.4-2.2-0.8-4.3-1.2-6.5c-0.5-3-1.1-6.1-1.6-9.1
			c-1,0.6-2,1.3-2.7,1.5c-0.4,0.1-0.7,0.1-1,0.1c-3.8,2.8-7.7,5.3-11.9,7.5c0,0.2-0.1,0.4-0.1,0.7
			C929.4,717.8,935.6,721.5,941.8,723.3C941.8,723.3,941.8,723.3,941.8,723.3z"/>
		<path fill="#810031" d="M1305.7,284.4c-15.1-31.4-53-54.1-82.3-70.4c-32.8-18.2-70.4-30.4-107.9-32.9c-74-5-147.6,23.6-190.8,85.3
			c-39.8,56.9-47.3,146.1,11.2,193.1c29.3,23.6,67.8,30.1,104.3,29.3c34.1-0.7,69.2-7.6,90.6-36.7c16.2-22,22.7-48.8,16.3-75.5
			c-5.8-24.3-28.2-41.5-53.2-36.3c-2.4,0.5-3.9,4.5-1.9,6.2c9,7.6,18,15.2,27.1,22.8c-3.4,1.2-6.3,3.6-9.4,5.6
			c-3.1,2-5.4,3.5-5.3,7.4c0,3.8,4.3,8.4,5.5,12.1c0.9,2.9,1.1,5.8,2,8.6c-3.1-0.4-6.2-0.7-9.3-1.1c-3.3-0.4-9-1.9-12,0.3
			c-5.4,3.9-7.9,12.3-9.7,19.3c-6.2-3.6-14-7.9-20.7-7.7c-3.3,0.1-6.6,4.9-8.6,6.9c-2.8,3-5.7,6-8.4,9.1
			c-3.3-5.9-8.3-14.2-14.1-15.5c-3.1-0.7-6.7,1.1-9.5,2c-3.6,1.2-7.2,2.3-10.7,3.7c0.2-1.3,0.4-2.6,0.6-4.1
			c0.8-6.1,1.1-12.3,1.2-18.5c0-1.8-1.2-3.2-3.1-3.2c-8.2,0.1-16.5-0.3-24.7,0.2c2.8-7.6,5.9-15,9.4-22.3c0.9-1.8,0.6-3.6-1-4.8
			c-5.4-4.1-11.2-7.5-17.3-10.5c4.7-3.9,9.4-7.9,14.3-11.6c1.5-1.1,2.4-3.1,1.5-4.9c-3.2-6.2-5.5-12.8-8.5-19.1
			c10.1,0.2,20.2,0.3,30.3,0.4c2.2,0,3.6-2.4,3.3-4.4c-1.4-8.9-1-17.7-1.4-26.5c4.9,0.5,9.7,1.6,14.4,3.3c5.2,1.9,9.7,3.9,15.4,3.9
			c1.9,0,3.3-1.9,3.4-3.6c0.3-7.3,0.5-14.6,0.7-21.9c4.1,3.3,8.4,6.5,12.6,9.6c3.8,2.8,6.9,5.3,11.6,3.5c8.4-3,9.5-15,13.8-22.3
			c3.9,5.8,7.9,11.6,11.5,17.7c0.6,1,1.7,1.9,3,1.7c10.2-1.2,21.3-1.7,31.5-4.3c-0.3,7.3-1.1,14.5-2.5,21.7
			c-0.5,2.6,1.2,5.1,4.1,4.3c5.8-1.7,11.6-2.8,17.5-3.5c3.2-0.4,6.5-0.4,9.7-0.8c-0.3,1.6-0.3,3.4-0.5,5c-0.8,7.5-1.5,15-2.2,22.4
			c-0.2,1.9,1.4,3.5,3.3,3.5c10.4-0.1,21,1.6,31.4,1.3c-3.7,6-7.4,12.1-11,18.2c-1.8,2.9-6.2,7.9-3.5,11.5
			c2.7,3.6,10.3,4.8,14.1,6.4c5.7,2.3,11.4,5.6,17.3,7.4c-4.4,4.4-8.3,8.8-13.6,12.5c-4.3,3.1-7.8,6.5-9.9,11.4
			c-0.6,1.3-1,3.3,0.3,4.4c4.6,3.9,9.2,7.8,13.9,11.7c3.5,2.9,7.8,5.7,10.7,9.4c-5.3,3.1-10.7,6-16.3,8.5c-4.7,2.1-9.1,2.9-11.6,7.6
			c-2,3.8,2.2,8.6,3.9,11.6c2.8,5.3,5.5,11.2,7,17.1c-7.7-0.4-15.2-1.3-22.8-2.5c-2.9-0.5-4.7,2-4.4,4.7c0.6,6.8,0.8,13.6,0.7,20.5
			c-0.1,4.2-0.7,8.5-0.7,12.7c-8.6-3.8-17.5-7.1-26.5-10c-2.3-0.7-4.5,1.7-4.6,3.8c-0.1,8-1,16.4-0.7,24.6c-3-1-6.1-1.7-9.4-2.5
			c-7.8-2-15.6-4.1-23.3-6.3c-2-0.6-4,1.1-4.6,3c-2.7,8.9-6.8,16.6-11.5,24.3c-6.4-8.8-16.1-16.8-25.9-20.2
			c-4.5-1.6-6.2,4.3-6.9,7.3c-1.4,6.5-5,11.3-8.8,16.2c-4-5.1-8.4-9.8-13.1-14.3c-3.9-3.6-9.2-9.8-14.9-9.4
			c-1.9,0.1-3.4,1.8-3.5,3.7c-0.3,7.7-1.9,15-5,22.1c-0.1,0.3-0.3,0.6-0.4,0.9c-3.3-6.4-7.1-12.4-11.6-18.1
			c-4.1-5.2-9.9-13.6-17.1-13.7c-2.4,0-3.7,2.6-3.4,4.6c0.8,6.8-1.3,12.4-5.8,17.4c-0.7,0.7-1.3,1.4-1.9,2
			c-1.5-6.6-2.8-12.9-6.7-18.9c-4.1-6.3-10.4-11-17.3-13.8c-2.5-1-5.1,0.6-5.3,3.4c-0.4,6.5-1.8,12.7-3,18.9
			c-10.1-17.1-25.8-29.4-45.2-35.5c-2.5-0.8-5.2,2.3-4.5,4.7c3.1,9.8,3.2,19.4,2.8,29.6c-0.4,9.4-18.6,14.5-25.4,17.7
			c-14.3,6.8-27.8,14.3-39.1,25.5c-22.9,22.7-30.5,60.2-25.8,91.1c3.6,24,17.9,41.1,36.6,51c-1.6,9.1,0.3,19.5,1.3,28.5
			c0.3,2.4,3.2,2.9,4.9,1.7c5.2,29.3,37.9,40.7,64.6,44.2c10.3,1.3,20.6,1.3,30.8,0.1c-7.5,11.2-9.8,25.9-10.3,39.4
			c-6.4-1.4-12.6-3.2-18.8-5.6c-2.9-1.1-5.3,3.1-4,5.4c5.3,9.5,12.6,15.3,22.2,20.2c6,3.1,17.6,9.8,23.8,4.9
			c5.8-4.6,4.9-17.2,4.9-23.5c-0.2-19.3,1.2-34.9,17-48.2c0.7-0.6,1-1.3,1.2-2c11.3-4.6,22.1-10.6,31.8-17.9
			c0.3-0.2,0.5-0.5,0.7-0.8c0.5,0.1,1.1,0.2,1.6,0.4c-1.9,16.6-6.3,36.4-3.3,52.5c1,5.6,9.2,11,12.7,14.5c3.7,3.7,11,6.6,5.9,12.1
			c-3.1,3.3-6.2,6.5-9.3,9.8c-1.8,1.9-1.7,5.9,1.4,6.5c17.7,3.1,34.2-0.5,48.8-11.1c2-1.4,3-4.5,1.1-6.4
			c-9.9-10.1-19.8-20.2-29.6-30.4c-6.4-6.5-10.7-11.1-10.1-21c0.5-7.9,1-15.9,1.3-23.8c38.7,2.5,78.6-13.8,113.9-26.6
			c-8.9,15-16.1,31.6-20.8,48.1c-3,10.7-2.1,21.9-1.3,32.8c0.2,3.3,2.1,11.2-2,13.1c-6.3,2.8-14.6,3.6-21.3,5.2
			c-3.1,0.8-4.4,6-1.3,7.6c13.9,7,28,10,43.6,8.9c2.2-0.1,4.2-2.2,4.2-4.4c-0.4-19.5-2.4-41.2,1.4-60.5c1.8-9.3,8.9-18.7,12.6-27.5
			c4-9.8,6.5-20.2,8.3-30.6c0.1-0.5,0.1-1,0-1.4c8.1-3.2,16.4-6.6,24.4-10.3c-2.2,24.8-2.5,49.9-3.6,74.7
			c-0.3,6.3-1.5,14.3,3.6,19.3c8.8,8.6,17.9,16.9,26.9,25.3c-4,3.1-7.2,6.6-10.4,11c-1.7,2.5,0.1,6.1,3.1,6
			c14.1-0.5,26.6-4.2,38.8-11.3c1.7-1,2.9-3.9,1.7-5.6c-5.2-7.5-10.7-14.6-16.7-21.5c-8.3-9.4-20.1-16.4-23.2-29.2
			c-2.8-12-0.1-27.3,0.2-39.6c0.3-12.8,0.6-25.6,0.9-38.4c0-0.7-0.1-1.2-0.3-1.7c16.6-9.5,31.8-21,43.4-35.5
			c9.4-9,18.6-18.1,27.4-27.6c5.8-6.3,11.3-12.7,16-19.8c5.4-8.2,7.8-18.4,12.3-27.1c8-15.3,16.3-29.7,22.2-46
			c6.5-17.9,10.2-36.7,13.1-55.5c5.9-38.5,9.3-80.5,3.3-119C1340.5,345.3,1325.1,311.2,1305.7,284.4z M840.9,726.4
			c-0.2-2.9-0.3-5.8-0.6-8.7c4.8,2.1,9.8,3.8,15,5c-4.9,3.4-9.4,7.5-13.5,11.9C841.5,731.9,841.1,729.2,840.9,726.4z M946.6,816.6
			c-0.3,4.7,0.2,9.5,0.4,14.1c0.2,6.1,1.9,19.1-7,16.2c-8.8-2.8-17.1-6.8-23.6-12.9c3.8,1.1,7.7,1.9,11.7,2.6
			c2.1,0.4,4.2-1.4,4.2-3.6c0.1-15.3,2-32.9,12.4-44.8c4.7-0.9,9.4-2,14.1-3.4C951.4,793.8,947.4,804.4,946.6,816.6z M1035.7,822.9
			l18.7,19.4c-9.7,5.8-20.1,8.4-31.3,8c5.8-5.5,11.6-12.1,5.9-18.8c-3.7-4.3-8.3-8-12.4-12c-7.6-7.3-7.5-13.9-6.7-23.6
			c0.8-10.9,1.7-21.9,2.3-32.8c2,0.4,3.9,0.6,5.9,0.9c-1.1,11.8-6,30.1,0.3,40.7C1022.6,811.5,1030.3,817.3,1035.7,822.9z
			 M1134.1,787.2c-2.6,7.2-1.6,16.3-1.8,23.7c-0.3,11.5-0.3,23-0.1,34.6c-7.9,0.1-15.3-0.9-22.7-3c5-1.1,9.8-2.6,12.4-5.4
			c5.5-5.7,2.8-17.1,2.3-23.8c-2.1-29.2,11.5-52.6,23-78.1c2.6-1,5.2-1.9,7.9-2.9C1150.5,751.9,1140.8,768.4,1134.1,787.2z
			 M1210.7,809c9.8,9.7,18.8,19.3,26.8,30.4c-7,3.5-14.2,5.9-21.8,7c1.8-1.6,3.9-3.1,6.1-4.3c2-1.2,3-4.6,1.1-6.4l-24.1-22.1
			c-11.1-10.2-8-23.5-7.4-36.9c0.9-20.2,2.3-40.6,2.1-60.9c2.6-1.3,5.1-2.6,7.7-3.9c-0.9,24.1-4.4,50.1-1.9,74
			C1200.3,795.6,1203.8,802.1,1210.7,809z M1335.7,491.9c-4.7,37.1-16.4,70.2-34.8,102.7c-4.1,7.3-6.7,15.2-10,22.9
			c-3.7,8.5-10.9,15.6-17.1,22.4c-11.9,13.1-24.6,25.5-37.7,37.4c-14.5,11.5-29.5,21.1-45.2,29.7c-1.1,0-2.2,0.5-2.8,1.5
			c-13.2,7-26.8,13.2-41.2,18.9c-0.4,0-0.8,0.2-1.2,0.5c-2.5,1-5,2-7.6,3c-43.9,16.4-88.3,33.1-135.7,23.6c-1.9-0.4-3.3,1.1-3.6,2.6
			c-15.9,11.4-33.5,19-52.3,22.7c-0.6-0.1-1.2,0-1.8,0.4c-7.9,1.5-16,2.4-24.3,2.5c-29.6,0.4-67.4-10-74.3-42.8
			c4.7-4.7,9.8-8.9,14.9-13.3c1.5,2.9,3.5,5.5,5.3,8.3c3.3,5,6.4,10.1,9.3,15.2c1.3,2.2,4.9,2.3,6-0.3c3.5-8.1,8.5-15.1,12.7-22.7
			c6.3,5.2,13.3,9.6,20,14.3c2,1.4,4.7-0.5,5.3-2.5c1.3-5.2,2.1-10.4,2.7-15.7c3,1.8,6.3,3.2,9.3,4.5c3.7,1.5,9.8,5,13.9,3.6
			c4.4-1.4,4-5.9,3.4-9.5c-1.2-7.2-2.6-14.4-4-21.6c-0.3-1.5-1.8-2.8-3.3-2.6c-2.7,0.3-5.4,1.6-6.9,3.7
			c-24.5,18.7-55.4,21.6-84.4,12.9c-41.2-12.4-52.1-55.8-43.6-93.8c7.9-35.5,32.5-53.9,63.6-68.5c6.5-3.1,20.4-6.7,23.3-14.3
			c3.7-9.5,3.1-21.8,0.7-32.4c17.7,7.3,31.2,20.5,39.2,38.3c1.9,4.2,7.7,0.2,6.3-3.7c2.9-6.8,4.1-14.8,4.9-22.3
			c4.4,2.6,8.1,6.2,11,10.7c4,6.3,4.3,13.9,6.3,20.9c1.2,4.3,6.8,2.6,7.1-0.9c6.8-6.7,11.8-13,12.7-22.1c4,3.2,8.4,10.1,10.3,12.6
			c4.6,6.1,8.2,13,11.2,19.9c0,0,0-0.1,0-0.1c1.6,3.5,7.1,1.3,7-2.5c0.6-0.8,1.2-1.7,1.6-2.6c1.4-2.3,2.4-5,3.4-7.6
			c1.9-4.7,3-9.7,3.7-14.8c3.8,2.5,7.6,7.1,10.1,9.7c3.9,3.9,7.3,8.1,10.6,12.5c1.5,1.9,4.3,1.2,5.8-0.6
			c8.1-5.2,10.4-14.2,13.9-22.6c3.8,1.4,9.2,6.7,11.2,8.4c4.5,3.9,8,8.6,11.9,13.1c0.1,0.2,0.3,0.4,0.5,0.5c0.1,0.1,0.1,0.1,0.2,0.2
			l0,0c2,1.9,6.8,0,6.2-3.4c5.9-7.5,10.1-16,13.4-25c10,3.4,22.1,8.6,32.6,8.6c0.5,2.8,4.5,2.2,5.1-0.3c0-0.2,0-0.3,0.1-0.5
			c1.5-0.8,1.9-2.7,0.6-4c1.1-7.5,1.1-15.4,1.1-23.1c8,2.8,16,5.9,23.8,9.4c3.4,1.5,6.5-2.6,5.4-5.2c3.8-9.5,2.9-22.3,2.1-32.8
			c7.8,1.6,15.7,2.3,23.7,2.5c0.7,0,1.4-0.2,1.9-0.6c0.9-0.4,1.6-1.2,1.8-2.2c0-0.1,0-0.3,0-0.4c0.1-0.5,0.2-1.1,0.1-1.6
			c0.3-8.1-4.7-17.8-8.1-24.6c-0.5-1-1.1-2-1.6-3c-2.8-2.6-2.3-3.8,1.4-3.6c2.3-0.9,4.6-2,6.9-3.1c5.9-2.8,11.7-5.9,17.3-9.3
			c3.1-1.8,2.1-6.1-0.5-6.9c-0.9-3.1-3.2-5.1-6.1-7.7c-5.6-5-11.4-9.9-17.2-14.8c3.1-4.5,7.8-7.4,12.2-10.8
			c4.3-3.3,7.2-7.9,11.2-11.6c3.1-2.8-0.2-7.2-3.4-5.9c-6.4-5.9-15.9-9.1-23.7-12.4c-1.9-0.8-3.9-1.6-5.9-2.4
			c2.1,0.8,4.5-5.3,5.1-6.4c3.5-5.8,7-11.6,10.3-17.4c1.3-2.3,0-4.3-1.8-4.9c-0.2-0.5-0.6-1-1.3-1.3c-9.3-3.7-21-3.7-31.2-3.7
			c0.3-3,0.6-6,0.9-9c0.2-2.5,0.4-5,0.7-7.5c0.1-0.8-0.1-5.9,0.3-6.4c2-2.2,0.7-5.6-1.8-5.7c-4.1-2.3-9.5-1.5-14.1-1.3
			c-4.8,0.3-9.6,1.1-14.3,2.3c1.1-6.9,1.6-13.8,1.5-20.8c0-2.6-2.1-3.4-3.9-3c-8.9-0.6-18.3,1.3-27.1,2.2c-5.9,0.6-6.2-1.4-9.2-6.1
			c-2.6-4-5.3-7.9-8.1-11.8c-1.1-1.5-2.9-1.2-4.3-0.2c-1.6-0.6-3.3,0.8-3.9,2.3c-2.9,7-6.6,13.9-11.3,19.9
			c-1.9,2.4-19.9-12.8-22.2-14.3c-0.4-0.3-0.8-0.4-1.3-0.4c-1.7-1.6-5.1-1.8-5.3,2.2c-0.4,8.2-0.8,16.4-1.2,24.6
			c-4.3-0.7-8.4-2.7-12.5-4.2c-5.1-1.8-10.4-2.6-15.8-3c-0.1,0-0.2,0-0.3,0c-1.1-0.2-2.5,0.5-2.8,1.6c-2.8,9.2-2.1,19.9-0.9,29.6
			c-9.4-0.2-18.8-0.4-28.2-0.6c-1.6,0-2.6,1-3.1,2.2c-1.1,0.5-2,1.7-1.8,3c0.9,7.5,4.3,15,7.6,21.9c-5.6,4.2-11.2,8.6-16.5,13.2
			c-1.9,1.7-1.4,3.9,0,5.1c0.2,0.4,0.6,0.8,1.1,1.1c6.4,3.2,12.3,6.9,18,11.1c-3.7,7.7-7.2,15.5-10.2,23.5c-0.3,0.9-0.3,1.6-0.1,2.2
			c-0.2,1.3,0.2,2.5,1.8,2.7c9,1,18.3,0.7,27.4,0.7c-0.2,3.6-0.3,7.1-0.7,10.7c-0.5,4.7-2.5,9.8-0.9,14.3c0.4,1.2,1.7,2,2.8,1.6
			c0.2,0,0.5,0.1,0.7,0.1c6-0.8,11.8-2.9,17.6-4.7c6.8-2.1,12,8.9,15,13.9c0.3,0.5,0.7,0.9,1.1,1.2c1,1.2,2.7,1.6,4.4,0
			c5-4.5,9.6-9.6,14.3-14.5c4.6-4.8,16.8,3.9,21.6,6.7c3,1.7,5.8-1.4,5.7-4.2c2.4-5.1,4.3-10.4,6.6-15.6c1.6-3.6,19.6,0.5,22.8,0.9
			c4.2,0.5,6.6-5.6,3.6-7.4c0-0.5,0-1-0.3-1.5c-2.4-5.3-2.3-11.6-4.7-17.1c-0.6-1.3-1.3-2.6-2.1-3.8c0.3,0.4,5.5-2.9,5.9-3.1
			c3.2-1.9,5.2-3.1,7.3-6.1c0.3-0.5,0.4-1,0.3-1.6c1.3-1.1,1.9-3.1,0.4-4.5c-7.3-6.5-14.6-13-21.8-19.4c19.5,1,32.6,17.4,37.2,36.7
			c4.8,19.9-1.3,41.2-11.6,58.2c-22.7,37.9-70.2,41-110,39.1c-41-2-82.1-19.8-104.2-55.6c-21.2-34.3-17.9-80.2-5.1-116.8
			c26.8-76.2,103.8-118.3,181.4-120.9c39.8-1.3,79.3,9.3,115.1,26.2c34.2,16.2,75.6,41.4,94.1,75.6c0.3,0.6,0.8,1,1.2,1.2
			c14.3,29.3,30.4,56.2,36.6,89.2C1345.2,415.7,1340.3,456,1335.7,491.9z M868,724.8c6.6,0.7,13.3,0.8,20,0.2
			c-3.9,4.6-6.9,10-9.5,15.5c-2-3.2-4-6.4-6.1-9.5C871,729,869.6,726.8,868,724.8z M901.1,723.1c5.2-1.1,10.2-2.7,15.1-4.7
			c-0.5,4.5-1.2,9-2.1,13.5C909.8,728.9,905.5,725.8,901.1,723.1z M923,715.9c0-0.2,0.1-0.4,0.1-0.7c4.2-2.1,8.1-4.7,11.9-7.5
			c0.3,0.1,0.6,0,1-0.1c0.7-0.2,1.7-0.9,2.7-1.5c0.5,3,1.1,6.1,1.6,9.1c0.4,2.2,0.8,4.3,1.2,6.5c0.1,0.5,0.2,1,0.3,1.5c0,0,0,0,0,0
			C935.6,721.5,929.4,717.8,923,715.9z"/>
		<path fill="#852C00" d="M866.4,571.3c-0.9,0.2-1.5,0.7-1.8,1.4c-3.8,1.8-7.1,5.1-8.7,9.3c-4.2,11.4,3.5,25,15.3,27.7
			c11.2,2.6,21.6-10.7,22.4-20.6C894.7,573.4,879.5,568.4,866.4,571.3z M874.1,603c-7.1,0.6-12.9-9.5-12.9-15.4
			c0-6.1,4.2-9.1,9.3-10.2c7.5,0.2,16.4,0.3,16.9,10.1C887.5,594.6,881.2,602.4,874.1,603z"/>
		<path fill="#852C00" d="M921.1,567.6c-7.9,0.3-14.8,6-18.2,14.2c-5.1,12.4,4.2,25.2,16.1,28.3c13.2,3.5,24.6-10.3,25.4-22.4
			C945,576.3,932.2,564.9,921.1,567.6z M921,603.1c-8.5-1.3-13.5-9.8-12.2-17.9c0.9-5.6,5-9.2,9.9-11.1c8,1.9,15.5,1.4,18.5,11
			C940.1,594.4,929.8,604.5,921,603.1z"/>
	</g>
</g>
</svg>
