<?xml version="1.0" encoding="utf-8"?>
<!-- Generator: Adobe Illustrator 18.0.0, SVG Export Plug-In . SVG Version: 6.00 Build 0)  -->
<!DOCTYPE svg PUBLIC "-//W3C//DTD SVG 1.1//EN" "http://www.w3.org/Graphics/SVG/1.1/DTD/svg11.dtd">
<svg version="1.1" xmlns="http://www.w3.org/2000/svg" xmlns:xlink="http://www.w3.org/1999/xlink" x="0px" y="0px"
	 viewBox="700 950 800 800" enable-background="new 0 0 2272 1872" xml:space="preserve">
<g id="Background">
	<rect x="-12.7" y="-29.1" fill="#FFFFFF" width="2297.7" height="1919.7"/>
</g>
<g id="Object">
	<ellipse fill="#E6E7E8" cx="1125.1" cy="1644.1" rx="268" ry="56"/>
	<g>
		<path fill="#AB4A9C" d="M1280.4,1290.2c5,3.2,7.5,9.1,9.1,14.9c1.1-2.7,1.6-5.5,2.2-8.6c0.5-2.6,3.8-3.4,5.6-1.8
			c2,1.8,4.4,4.8,7,7.2c-1.9-6.9-5.3-13.5-10.6-18.4c-10.3-9.6-24.9-7.5-34.8,1.9c-0.1,1.5-0.2,2.9-0.3,4.4
			C1266.1,1286.8,1273.1,1285.5,1280.4,1290.2z"/>
		<path fill="#AB4A9C" d="M1066.5,1139.3c13.2,16.6,7.6,40.2-2.5,56.6c1.8,1.4,3.7,2.6,5.5,3.9c9.3-12.5,31.3-17,45-10.1
			c6.2-21.4,15-42.5,26.6-60.9c1.1-1.8,2.3-3.6,3.5-5.4c-0.6-15.4-1.4-30.6-5.6-45.5c-1.8-6.3-35.1,0.8-40.2,1.7
			c-30.3,5.3-58,15.4-86,27.8c1.8,6.8,3.7,13.5,5.8,20.1C1034,1119.8,1056.4,1126.6,1066.5,1139.3z"/>
		<path fill="#AB4A9C" d="M1334.3,1539.7c-5-6.9-6.2-14-8.3-22.3c-3.3-12.9-7.3-25.7-12.7-37.8c-7.7-17.1-27.2-9.6-39.9-2.1
			c1.2,5.5,2.2,11.1,2.8,16.6c6.5-4.4,13-8.8,19.6-13.3c1.4-0.9,3.8-0.6,4.4,1.1c6.3,16.3,12.5,32.6,18.8,48.9
			c2.8,7.2,5.2,20.8,16,20.6c6-0.1,11.8-0.7,17.5-1.7C1346,1546.7,1338.3,1545.3,1334.3,1539.7z"/>
		<path fill="#AB4A9C" d="M1265.9,1477.4c-0.7-3.1-1.4-6.2-2-9.3c-2.9-14.8-5.6-29.7-8-44.6c-4.5-28-9.8-56.6-11-85
			c0-0.3,0.1-0.5,0.1-0.8c-8-0.8-16.6-0.4-22.9-1.9c-3-0.7-1.8-5.1,0.9-5.4c13-1.1,31.6-0.8,42.7,7.2c8.6,6.1,4.6,18.2,7.8,26.9
			c1.3-2.7,2.2-5.6,2.4-8.8c0.3-2.8,3.3-4.9,5.7-2.7c2.5,2.6,5.3,4.2,8.3,5.2c-3.4-14.7-9-33.8-25-37.6c-15.7-3.7-31.5-0.2-47.2,2
			c-2.3,0.3-2.1-3.1-0.3-3.7c8.7-3.2,21.5-6.4,33.5-6.5c-0.1-23.3,1.5-47.3,7.4-69.9c-11-6.4-26.3-6.2-35.7-15.6
			c-8.6-8.6-15.7-19.1-18.2-31.1c-0.5-2.4,2.5-6.1,5.1-4.2c10.9,8.3,22.4,15.7,34.2,22.6c7.5,4.4,15.5,10.7,24.8,9.4
			c3.5-0.5,4.3-0.6,6.1-0.5c8.1-27.6,33.9-42.8,33.7-74.1c-0.2-30.1-9.9-58.3-20.6-86.1c-1.9,5-3.5,10-4.8,15.3
			c-0.5,2.3-3.1,3.4-5.1,2.4c-19-9.2-37.4-11.3-58.2-10.6c-7.7,0.2-10.1-10-11.4-17.8c-4.4,7.7-6.6,15.7-7.9,24.9
			c-0.2,1.6-1.7,2.3-2.8,1.9c-9.8,8.2-20.7,14.8-29.6,24.4c-6.9,7.5-13.3,15.4-18.9,23.8c0,0.1,0,0.2,0,0.3c-0.1,1-0.7,1.8-1.5,2.1
			c-1.3,2-2.6,4.1-3.8,6.2c-15.1,26.5-22.8,54.6-31.5,83.5c1.4,2.2-0.6,6.1-3.8,5.6c-61.2-10.5-103.3-77.8-106.6-136.9
			c-85.2,4.8-165.8,71.9-200.7,148.4c25.6-22.2,60.3-35,94.2-33.6c38.7,1.6,54.3,36.3,52.1,70.9c13.8-13.5,32.3-23.8,52.2-22
			c24.7,2.3,37.9,18,49.1,37.9c9.8-19.4,27-41.1,50.9-36.9c1.9,0.3,1.7,2.4,0.6,3.5c-2.1,23.5-5.6,46.7-6,70.4
			c-0.4,22.1,0.2,44.2,0.9,66.4c1.5,44.3,0,90.2,8.9,133.7c0.2,1,0,1.8-0.4,2.5c0,0.5-0.1,1-0.4,1.5c-14.6,23.6-42.8,37.3-69,43.1
			c-27.1,6-58.7-6.5-80.3-22.5c-21.1-15.6-33.9-42.9-27.1-68.9c3.9-14.9,11.4-28.5,15.4-43.3c4.2-15.6,3.2-30.1-2-44.2
			c2.1,18.9-5.2,35.7-14.2,54.7c-15.2,32-17.8,72,9.9,98.2c25,23.6,61.7,46.2,97.4,35.7c26.8-7.9,55.9-23.8,76.5-43.3
			c-0.1-2.6,2.8-5.1,5.2-2.9c22.1,21.8,50.9,29.5,81.6,25.2c26.9-3.8,66.6-14.3,72.8-46c2.4-12.2-0.1-24.7-2.8-36.8
			C1265.9,1479,1265.7,1478.2,1265.9,1477.4z M1290.9,1145.7c11.1-2.8,11.4,16.9,10.7,23.7c-1.1,9.8-11.3,20.5-21.7,18.4
			c-13-2.6-6.5-23.2-3.8-30.5C1278.2,1151.8,1285,1144.4,1290.9,1145.7z M1231.4,1163.9c0.5-6.7-0.4-15.9,4-21.6
			c4.5-5.8,16.2-15.6,23.9-12.7c10.2,1.4,14.9,17.1,12.9,26.4c-2.7,13-15.7,29.5-31.2,23.8C1233.5,1177,1230.8,1171.9,1231.4,1163.9
			z"/>
		<path fill="#AB4A9C" d="M1193,1609.6c-3,5.7-18.1,33.2-4.1,35.1c6,0.8,11.9,1,17.8,0.9c-8.3-4.9-14.2-9.5-9.5-20.8
			c7.7-18.4,21.4-39,21.3-59.6c-2.7,0.7-5.5,1.3-8.2,1.9C1208.3,1582.8,1200.3,1595.6,1193,1609.6z"/>
		<path fill="#FFFFFF" d="M1288.1,1179.5c5.4-3.6,7.3-7.5,7.6-14c0.2-5.9,0.7-11.8-5.8-13.6c-5.3,0.7-7.8,5.5-9.4,11
			C1279.1,1168.1,1275,1188.3,1288.1,1179.5z"/>
		<path fill="#FFFFFF" d="M1247.7,1173c10.1-1.2,17.6-9.8,18.1-20c0.4-8.8-2.9-13.9-10.4-16.5c-7.2,0-15.5,8.3-16,14.8
			C1238.9,1158.4,1235.1,1174.5,1247.7,1173z"/>
		<path fill="#621F59" d="M1351,1541c-10.8-4.3-14.8-8.8-17.6-20.6c-3.5-15.2-8.4-29.9-14.7-44.2c-4.6-10.5-8.9-13.4-20.4-13.2
			c-9.4,0.2-18.5,3.8-26.2,9c-1.3-5.9-2.6-11.6-3.7-17.2c-7.2-38.6-11-77.9-18.4-116.4c8.3,1.6,14.9,5.5,15.7,15.9
			c0.6,7.5,0.3,13,5,19.1c1.5,2,4.2,0.6,5.3-1c2.7-3.7,4.3-7.1,5.3-11c3.5,2.3,7.2,3.7,12.1,4.3c2.4,0.3,4.7-1.8,4.1-4.4
			c-3.7-16.9-8.4-32.6-22.9-43.2c-4.6-3.3-10.4-5-16.8-5.7c0-0.1,0-0.1,0-0.2c-0.1-5.1,0.1-10.2,0.3-15.3c6.9-2.9,13.6-5.2,20,0.7
			c4.4,4.1,5.3,11.2,6.4,16.8c0.5,2.7,3.8,3.1,5.5,1.3c3.5-3.5,5.3-7.5,6.5-11.9c3.2,3.6,6.2,7,11.4,7.7c2.5,0.4,4.5-1.8,4.1-4.3
			c-2.2-14.4-9.7-27.8-22.6-35c-8.9-4.9-22.2-0.9-30.1,6.1c1.1-12.6,2.8-25.1,4.5-37.8c0-0.3,0-0.5,0-0.8c0.4-1.4,0.2-3-1.3-3.9
			c-8.8-5.2-18.6-6.6-28-10.3c-8.6-3.4-15.6-12.5-19.8-21.8c9.7,6.8,19.8,12.9,30.1,18.9c4,2.3,9.1,6.2,13.8,7
			c6.5,1,12.2-0.4,18.8-0.5c1.3,0,2.3-1.1,2.7-2.3c0.6-0.5,1.2-1.1,1.4-2c4.4-15.1,15.6-26.2,24.1-39.1c7.4-11.2,9.7-24.3,10.2-37.4
			c1.3-33.5-12.4-66.4-24.5-96.8c-1-2.6-5-1.9-6,0.3c-3.1,6.7-5.5,13.5-7.4,20.5c-11-4.9-22.2-8.1-34.2-9.5
			c-5.1-0.6-10.3-0.5-15.5-0.4c-12.7,0.4-12.3-9.2-15-19.3c-0.8-2.9-3.9-2.6-5.4-0.5c-6.8,9.3-11,19.6-11.1,31
			c-18.7,7.1-34.4,24.5-46.6,41.7c0.2-15-2.4-30.1-6.3-44.5c-0.4-1.4-1.5-2.4-2.9-2.3c-44.4,1.3-90.2,11.6-129.7,32.4
			c-1.5-5.6-3.1-11.2-4.7-16.8c0.1-1.7-0.8-3.3-3-3.2c-47.8,2.4-91.9,23.6-128.3,53.9c-32.6,27.2-74.5,66-82.8,110.1
			c-0.4,0.4-0.9,0.9-1.3,1.3c-3.1,3.4,1.3,8.6,4.7,5c22.6-24.4,53-37.3,85.7-40.9c20.9-2.3,39,1.1,51.1,19.6
			c9.6,14.8,8.5,32.7,9.9,49.4c-1.4,3,2.1,6.4,4.7,3.5c14.8-15.8,32.9-26.5,55.2-24.4c22.4,2.1,34.3,21.7,43.8,39.7
			c1.1,2.1,4.5,2,5.4-0.2c9.4-21.1,21.5-35.2,43.7-40.3c-11.6,43.1-8.4,91.5-7,135.5c1.5,44.6-0.4,91.2,9.2,135.1
			c-19,21.6-43.7,36.8-72.9,39.5c-30.8,2.9-67.7-17.1-84-42.6c-18.3-28.6-0.5-56.6,8.1-84.7c6.4-21.1,2.5-44.3-10.2-62.2
			c-0.7-1-1.7-1-2.5-0.6c-0.1-0.2-0.1-0.3-0.2-0.5c-0.9-2.1-4-0.3-3.5,1.7c6.2,22.9,1,42.5-9.5,63.1c-6.8,13.4-11.7,26.9-14,41.8
			c-5,31.3,8.2,59.5,32.8,78.5c27.5,21.2,57.9,36.2,93.1,27.6c16.2-3.9,31.1-13,45.4-21.3c11.9-6.9,23.6-14.1,32-24.9
			c18.2,20.8,46.7,27.1,73.4,26.2c6.1-0.2,12.4-0.8,18.6-1.8c-4.5,23.8-24.4,42-26.9,66.2c-0.7,6.8-2.1,12.1,4.2,15.6
			c9.5,5.3,26.7,2.5,36.9,1.9c3.2-0.2,4.5-4.6,1.9-6.3c-2.4-1.6-19.8-11.3-18.8-14.5c3-9.6,8.4-19,12.5-28.2
			c5.4-12.2,11.5-26,10.9-39.6c15.6-5,30.1-13.1,40.6-25.3c9.3-10.8,11.8-23.3,11.4-36.3c6.3-4.2,12.5-8.5,18.8-12.8
			c7.7,20.9,13.9,44.9,25.4,63.8c7.2,12,30.8,4.7,41.1,2c2.4-0.6,3.5-4.1,1.8-5.9C1359.9,1545,1356,1542.9,1351,1541z
			 M1258.9,1285.3c9.9-9.4,24.5-11.5,34.8-1.9c5.3,4.9,8.6,11.5,10.6,18.4c-2.6-2.4-4.9-5.4-7-7.2c-1.8-1.6-5.1-0.8-5.6,1.8
			c-0.5,3-1.1,5.9-2.2,8.6c-1.6-5.8-4-11.7-9.1-14.9c-7.3-4.7-14.3-3.4-21.8-0.5C1258.7,1288.2,1258.8,1286.8,1258.9,1285.3z
			 M1098.7,1079.5c5.1-0.9,38.5-8,40.2-1.7c4.2,15,5,30.2,5.6,45.5c-1.2,1.8-2.4,3.6-3.5,5.4c-11.5,18.4-20.3,39.4-26.6,60.9
			c-13.7-6.9-35.6-2.4-45,10.1c-1.9-1.3-3.8-2.5-5.5-3.9c10-16.5,15.7-40.1,2.5-56.6c-10.1-12.7-32.6-19.5-47.9-11.9
			c-2.1-6.6-4-13.3-5.8-20.1C1040.7,1095,1068.4,1084.9,1098.7,1079.5z M1112.8,1195.8c-1.9,7.2-3.6,14.4-4.9,21.5
			c-12.5-3.1-23.8-8-34.1-14.4c4.2-3.5,8.4-6.3,14.1-8.1C1096.5,1192.2,1104.5,1194.9,1112.8,1195.8z M1059.2,1191.9
			c-6.8-6-13.2-12.7-19-20.3c-9.3-12.3-15.3-25.6-20-39.4c14.3-1.4,28.3-2.8,39.5,8.8C1073.5,1155.3,1067.3,1176.6,1059.2,1191.9z
			 M1197.3,1624.9c-4.8,11.3,1.1,15.9,9.5,20.8c-5.9,0.1-11.8-0.1-17.8-0.9c-14-2,1.1-29.5,4.1-35.1c7.3-14,15.3-26.8,17.3-42.5
			c2.8-0.6,5.5-1.1,8.2-1.9C1218.8,1585.9,1205.1,1606.5,1197.3,1624.9z M1269.2,1516.4c-6.2,31.7-45.8,42.2-72.8,46
			c-30.7,4.3-59.5-3.4-81.6-25.2c-2.3-2.3-5.3,0.3-5.2,2.9c-20.6,19.5-49.7,35.3-76.5,43.3c-35.6,10.5-72.4-12-97.4-35.7
			c-27.7-26.2-25-66.2-9.9-98.2c9-19,16.3-35.8,14.2-54.7c5.2,14.2,6.2,28.6,2,44.2c-4,14.8-11.6,28.4-15.4,43.3
			c-6.7,26.1,6,53.4,27.1,68.9c21.6,15.9,53.2,28.5,80.3,22.5c26.2-5.8,54.4-19.5,69-43.1c0.3-0.5,0.4-1,0.4-1.5
			c0.4-0.7,0.6-1.6,0.4-2.5c-8.9-43.6-7.4-89.4-8.9-133.7c-0.8-22.1-1.3-44.2-0.9-66.4c0.4-23.7,3.9-46.9,6-70.4
			c1.1-1.1,1.3-3.2-0.6-3.5c-23.9-4.1-41.1,17.5-50.9,36.9c-11.1-19.9-24.4-35.6-49.1-37.9c-19.8-1.8-38.3,8.5-52.2,22
			c2.1-34.7-13.4-69.3-52.1-70.9c-33.9-1.4-68.6,11.4-94.2,33.6c34.9-76.6,115.5-143.7,200.7-148.4c3.3,59.1,45.4,126.4,106.6,136.9
			c3.2,0.5,5.2-3.4,3.8-5.6c8.7-28.8,16.4-57,31.5-83.5c1.2-2.1,2.5-4.1,3.8-6.2c0.7-0.4,1.4-1.1,1.5-2.1c0-0.1,0-0.2,0-0.3
			c5.6-8.5,12-16.4,18.9-23.8c8.9-9.6,19.7-16.2,29.6-24.4c1.1,0.4,2.6-0.3,2.8-1.9c1.3-9.2,3.5-17.2,7.9-24.9
			c1.3,7.9,3.6,18.1,11.4,17.8c20.8-0.6,39.3,1.4,58.2,10.6c2,1,4.6-0.2,5.1-2.4c1.3-5.3,2.9-10.3,4.8-15.3
			c10.7,27.8,20.4,55.9,20.6,86.1c0.2,31.3-25.6,46.5-33.7,74.1c-1.8-0.2-2.6,0-6.1,0.5c-9.4,1.3-17.4-5-24.8-9.4
			c-11.8-6.9-23.3-14.3-34.2-22.6c-2.6-2-5.6,1.8-5.1,4.2c2.5,12,9.6,22.5,18.2,31.1c9.4,9.4,24.7,9.1,35.7,15.6
			c-5.9,22.7-7.5,46.6-7.4,69.9c-12,0.2-24.7,3.3-33.5,6.5c-1.7,0.6-2,4.1,0.3,3.7c15.7-2.2,31.4-5.7,47.2-2
			c16,3.8,21.6,22.9,25,37.6c-3-1-5.8-2.6-8.3-5.2c-2.4-2.2-5.4-0.1-5.7,2.7c-0.2,3.2-1.1,6.1-2.4,8.8c-3.2-8.7,0.8-20.7-7.8-26.9
			c-11.1-7.9-29.7-8.3-42.7-7.2c-2.7,0.2-3.9,4.7-0.9,5.4c6.2,1.5,14.9,1.1,22.9,1.9c-0.1,0.3-0.1,0.5-0.1,0.8
			c1.1,28.4,6.5,57,11,85c2.4,14.9,5.1,29.8,8,44.6c0.6,3.1,1.3,6.2,2,9.3c-0.2,0.8,0,1.6,0.5,2.2
			C1269.1,1491.7,1271.6,1504.2,1269.2,1516.4z M1334.9,1551.4c-10.8,0.2-13.3-13.4-16-20.6c-6.3-16.3-12.5-32.6-18.8-48.9
			c-0.7-1.7-3-2-4.4-1.1c-6.5,4.4-13.1,8.8-19.6,13.3c-0.6-5.5-1.6-11.1-2.8-16.6c12.7-7.5,32.2-15.1,39.9,2.1
			c5.4,12.2,9.4,24.9,12.7,37.8c2.1,8.3,3.3,15.3,8.3,22.3c4.1,5.6,11.8,7,18.2,10.1C1346.7,1550.7,1340.9,1551.3,1334.9,1551.4z"/>
		<path fill="#621F59" d="M1241.1,1179.8c15.5,5.7,28.4-10.9,31.2-23.8c2-9.2-2.8-25-12.9-26.4c-7.8-2.9-19.4,6.9-23.9,12.7
			c-4.4,5.7-3.5,14.9-4,21.6C1230.8,1171.9,1233.5,1177,1241.1,1179.8z M1239.5,1151.3c0.5-6.5,8.8-14.8,16-14.8
			c7.5,2.6,10.7,7.7,10.4,16.5c-0.5,10.2-8,18.8-18.1,20C1235.1,1174.5,1238.9,1158.4,1239.5,1151.3z"/>
		<path fill="#621F59" d="M1279.9,1187.8c10.4,2.1,20.6-8.6,21.7-18.4c0.8-6.9,0.5-26.5-10.7-23.7c-5.9-1.2-12.7,6.1-14.8,11.6
			C1273.3,1164.5,1266.9,1185.2,1279.9,1187.8z M1280.6,1162.9c1.6-5.5,4.1-10.3,9.4-11c6.4,1.8,6,7.7,5.8,13.6
			c-0.3,6.5-2.2,10.4-7.6,14C1275,1188.3,1279.1,1168.1,1280.6,1162.9z"/>
	</g>
</g>
</svg>
