<?xml version="1.0" encoding="utf-8"?>
<!-- Generator: Adobe Illustrator 18.0.0, SVG Export Plug-In . SVG Version: 6.00 Build 0)  -->
<!DOCTYPE svg PUBLIC "-//W3C//DTD SVG 1.1//EN" "http://www.w3.org/Graphics/SVG/1.1/DTD/svg11.dtd">
<svg version="1.1" xmlns="http://www.w3.org/2000/svg" xmlns:xlink="http://www.w3.org/1999/xlink" x="0px" y="0px"
	 viewBox="0 950 800 800" enable-background="new 0 0 2272 1872" xml:space="preserve">
<g id="Background">
	<rect x="-12.7" y="-29.1" fill="#FFFFFF" width="2297.7" height="1919.7"/>
</g>
<g id="Object">
	<ellipse fill="#E6E7E8" cx="402" cy="1644.1" rx="268" ry="56"/>
	<g>
		<path fill="#F1F2F2" d="M421.9,1244.2c2.9-7.3,6.1-14.4,10-21.1c-7.9,0.4-15.7,1.1-23.4,2.1
			C413.7,1230.8,418.1,1237.5,421.9,1244.2z"/>
		<path fill="#ED1C24" d="M335.1,1609.9c-0.4,0-0.8-0.1-1.2-0.1c-2.2-0.2-4.4-0.4-6.6-0.6c0.7,7.8,0.1,19.3-6.3,23.1
			c-6,3.7-13,5.1-19,8.9c-3.2,2-6.1,4.2-8.9,6.6c13.4,1.3,26.7,1.2,40.1-0.2c1.8-10.5-0.8-20.8,0.6-31.4
			C334.2,1613.8,334.4,1611.7,335.1,1609.9z"/>
		<path fill="#ED1C24" d="M445.5,1625.5c0-7.9-0.1-15.8-0.1-23.7c-3.2,1.1-6.5,2-9.7,2.9c1.8,11.9,0.5,24.2-1.5,36
			c11.8-0.1,23.6-0.1,35.4-0.1c-6.3-5.2-15.1-9.4-21.5-11.6C446.5,1628.6,445.5,1627.3,445.5,1625.5z"/>
		<path fill="#F1F2F2" d="M488.5,1143.5c3.3,1,7.5,2.3,10.9,0.9c8.9-3.7,12.1-17.8,4.1-24.3c-6-4.9-12.2-2.3-18.6-4
			c-0.4,0.2-1,0.3-1.3,0.6c-4.9,3.5-5.6,9.5-4.1,15C480.8,1137,482.7,1141.8,488.5,1143.5z"/>
		<path fill="#ED1C24" d="M186.7,1172.7c-5-13.9-5.7-28.8-1.1-42.9c5.3-16.4,13.5-33.7,26-45.9c8.6-8.4,21.5-8.4,32.9-7.4
			c-3-8.6-14.1-8-20.9-8c-3.1,0-3.9-3.7-2-5.7c5.9-6.3,9.2-12.6,10.6-20.3c-8.7,6.1-16.1,13.3-22.7,21.9c-1,1.3-3.5,1.5-4.6,0.2
			c-3.9-5-8.1-8.4-13.4-10.9c1,12.1,7.3,24.1,4.3,36.1c-3.6,14.4-14.2,25.4-18.3,39.5c-10.7,36.3,7.6,72.9,43.5,85
			c0.2-3.7,0.5-7.5,0.8-11.4C207.5,1196.6,192.3,1188.4,186.7,1172.7z"/>
		<path fill="#ED1C24" d="M558.2,1388.9c14.1,0.5,21.9,8.4,30.9,17.5c0.3-4-0.1-7.8-1.4-12.2c-0.8-2.5,1.5-4.8,3.8-5.1
			c5.8-0.9,10.9-2.5,15.9-4.9c-4.7-2.1-9.4-3.3-15.1-3.6c-2.9-0.1-4.3-3-2.9-5.5c1.5-2.1,2.4-4.4,2.9-6.8
			c-34.2,16.5-73.3,9.3-108.3-2.7c2.9,4.8,5.9,9.5,9.1,14.1C514.6,1385.2,536,1388,558.2,1388.9z"/>
		<path fill="#F1F2F2" d="M448.2,1146.7c10.8-3.4,15.8-20.2,6.5-28.4c-6-5.3-13.1-4.5-20.2-3.9c-6.5,3-11.3,9.1-9.5,17.2
			C427.1,1141.6,437.5,1150.1,448.2,1146.7z"/>
		<path fill="#ED1C24" d="M529.3,1092.2c-0.3-13-8-25.1-22.3-24.5c-15.8,0.7-16.2,11.1-19.8,22.7c8.8,0.5,17.6,1,26.4,1.2
			C518.8,1091.7,524,1091.9,529.3,1092.2z"/>
		<path fill="#ED1C24" d="M420.4,1086.3c1.1,0,2.2,0.1,3.3,0.2c-1.9-8.2-4.2-17.7-14.2-18.9c-11-1.3-20.1,8.4-17.8,19.1
			C403.4,1085.4,416.5,1086.1,420.4,1086.3z"/>
		<path fill="#ED1C24" d="M114.5,1302.7c-4.8,21.8,0,42.7,1.1,64.4c0.5,10.4-0.4,19.9-5,28.5c4.4-1.6,8.3-4.1,11.8-8.1
			c1.9-2.2,5.5-1.3,6.1,1.5c1.1,4.5,2.8,8,5.3,11.3c1.1-5.4,1-10.6-0.6-16.5c-0.8-2.9,2-5.2,4.7-5c3.9,0.4,7.3,0.4,10.7,0.1
			c-10.4-5.2-19.4-10.4-20.7-23.9c-1.7-17.8-1.4-37.1,7.3-53.3c17.9-33.2,48.5-35.9,82.5-30.7c0.3-5.4,0.6-10.8,1-16.2
			C181.6,1256.6,124.7,1255.9,114.5,1302.7z"/>
		<path fill="#ED1C24" d="M475.6,1072.5c-3.5-5.9-9.3-13-16.7-14c-11-1.5-21.6,5-24.9,15.9c-1.2,4.1-1.6,8.3-2.5,12.4
			c16.2,0.8,32.4,2.1,48.5,3.1C478.6,1084.1,478.9,1078.1,475.6,1072.5z"/>
		<path fill="#F1F2F2" d="M389.5,1250.6c3.5-7.7,6-15.7,8.3-24c-7.1,1.2-14.2,2.7-21.2,4.4C381.1,1237.4,385.3,1244,389.5,1250.6z"
			/>
		<path fill="#ED1C24" d="M610.6,1322.2c0.8-3.6,0.9-7.2,0.3-10.7c-42.6,32-101.2,32.8-143.5,0.2c-0.2,3.8-0.1,7.5,0.3,11.2
			c14.3,7.4,29,15,45.1,17.6c17,2.7,33.9,2.2,51,0.8c13.4-1.1,26.4-3.5,39.3,1.2c7.5,2.7,13.9,7,21.1,9.5c-2.8-4.4-6-8.4-9.9-12.1
			c-1.9-1.9-0.7-6,1.9-6.5c7.9-1.6,14.5-4.5,20.5-9.1c-7.5,0-14.8,0.6-22.4,2.1C611.7,1326.9,610.1,1324.9,610.6,1322.2z"/>
		<path fill="#F1F2F2" d="M459,1222.6c-5.8-0.1-11.6,0.1-17.3,0.2c5.8,5.6,10.9,12,15.9,18.3c3.8-5.8,7-11.9,9.4-18.5
			C464.3,1222.7,461.7,1222.6,459,1222.6z"/>
		<path fill="#ED1C24" d="M461,1301.9c0.3-1.9,1.6-2.8,2.9-3c0.7-0.4,1.5-0.7,2.4-0.5c25,3.9,49.7,8.1,75,8.8
			c22.2,0.6,56.5,4.8,69.9-17.7c12.1-20.3,16-46.9,18.7-69.9c2.5-20.5,6.3-44.9-0.7-64.9c-16.7-47.7-72.8-53.8-116-54.7
			c-12.1-0.3-136.7-9.4-136.4-1.6c0.2,3.7-5.4,5.2-6.6,1.5c-0.7-0.3-1.2-0.9-1.3-1.9c-1-11.9-13.7-22.6-26.2-17.6
			c-10.2,4.1-16,12-19.1,22.3c-0.6,1.9-3.2,4-5.2,2.5c-16.8-12.1-39.3,2.2-30.8,23c1.3,3.1-1.7,7-5.1,5.3
			c-19.5-10-36.6,10.4-24.3,28.2c2,2.9-1.6,6.1-4.3,5.8c-30.1-3.5-25.8,51.4-27,70c-1.3,20.7-2.6,41.4-3.4,62.2
			c-1.8,44.7-2.2,89.7,2,134.4c3.8,40.1,7.6,86.9,29,122.1c10.9,17.9,26.8,34.9,47.6,40.8c18.5,5.3,38.2,6.4,57.3,7.1
			c38.5,1.4,81.2-0.8,114.1-23.5c28-19.4,47.4-51.1,51.4-85.1c4.7-39.4-9.7-70-31.9-101.6c-1.6-2.2-3.1-4.4-4.6-6.7
			c-0.1,0-0.1,0-0.2,0c-2-0.5-2.7-2.2-2.5-3.8C469.5,1358.6,455.9,1332.4,461,1301.9z M485.2,1111c5.1-2.7,12.3-2.1,17.4,0.3
			c6.5,3.1,10,8.4,11.6,15.3c1.7,7.5-0.1,11.9-4.4,18.1c-3.1,4.5-8.3,7.9-14,7.5c-15.9-1-24.2-11.6-23.2-27.5
			C473.2,1116.3,478.6,1112,485.2,1111z M418,1128.1c1.2-9.1,6.7-16.6,14.3-19.4c10.7-6.7,28.6,0.6,32.1,12.5
			c4.1,13.7-1.3,31.7-17.8,33.2C431.9,1155.6,415.7,1144.4,418,1128.1z M454.7,1250.6c-5.6-7.7-11.7-15-17.3-22.6
			c-3.9,8.7-8,17.2-11.5,26.1c-1.1,2.7-5.2,4.7-6.8,1.3c-4.4-9-10.1-16.9-15.4-25.3c-2.1,10.4-6,20.3-11,29.6
			c-1.3,2.4-4.6,2.6-6,0.3c-5.6-8.9-11.7-17.8-16.7-27.1c-9.1,2.6-18.2,5.7-27.2,9.5c-3.9,1.6-5.7-4.8-2.3-6.5
			c37.9-19.1,82.2-21.5,123.8-20.2c42.3,1.3,84.7,2.5,122.1,24.4c2.4,1.4,0.1,5.1-2.3,4c-34.8-16.4-71.7-20.1-109.5-21.2
			c0,0.2,0,0.3-0.1,0.5c-3.4,9.9-8.2,18.7-14.6,26.9C458.9,1251.8,455.9,1252.2,454.7,1250.6z"/>
		<path fill="#852C00" d="M646.2,1317.1c-9.7-0.7-19.1-0.1-28.5,1.6c0.3-4.7-0.1-9.1-1.3-14c-0.5-2-3-3.4-4.8-1.9
			c-42.2,34.2-98,34.1-141.4,3.6c26.7,6.3,54.5,8.5,81.8,8.9c22.6,0.4,46.6,0.6,62.5-17.9c14.7-17.1,18.1-45.8,21.2-67
			c3.8-25.8,9.5-58.3-1-83.4c-16.5-39.6-57.4-50.7-96.8-54c0.4-8.6-2.4-16.8-7.8-23.6c-6.3-7.8-13-9.2-22.7-9.2
			c-9.6,0-17.8,5.6-22.3,13.4c-4.6-12.2-16.5-23.2-28.1-23c-13,0.2-25.8,9.8-30.1,22.1c-4.5-8.1-12.5-14.1-21.9-12.1
			c-6.4,1.3-13.2,5-16.9,10.6c-2.8,4.2-5.4,11.5-2.7,16.4c-4.4,0.8-8.4,2-11.2,3.8c-2.9-10.7-12.3-19.8-24.4-19.1
			c-15.2,0.9-25.6,10.9-31,24.2c-20.6-11.3-42.2,6.2-39.4,27.8c-20.9-4.9-39,15.4-30.6,35.6c-17.4,1.9-23.7,19-26.3,37.2
			c-8.7-4.7-16.9-9.7-23.8-17.2c-10.6-11.5-11-29.4-8.2-43.8c2.5-12.7,9.1-24.3,15.7-35.2c9.9-16.4,23.4-19,41.3-17.1
			c2,0.2,4.3-1.2,4.2-3.5c-0.6-13.1-10.4-17.2-21.4-18.1c5.6-7.7,8.5-16.2,9-26.3c0.1-2.5-2.6-4-4.7-2.7
			c-10.6,6.6-19.5,14.4-27.3,24c-5-5.6-10.9-9.3-18.3-11.7c-2.1-0.7-4.1,1.6-4.2,3.5c-0.5,8.2,1.3,15.6,3.3,23.5
			c3.5,13.3-0.1,23.3-6.7,34.7c-8.4,14.5-13.8,28-14.2,45c-0.9,32.7,22.7,60.4,52.8,70.1c0.2,0.1,0.3,0,0.5,0
			c-0.1,3.6-0.3,6.9-0.5,9.8c-0.4,5.9-0.7,11.8-1.1,17.6c-34.5-4.4-73.2,1.1-98,27.3c-11.8,12.4-15.3,29-16,45.5
			c-1,23.6,12.2,57.2-5.4,76.2c-2.1,2.3-1.3,6.8,2.3,6.6c8.4-0.4,15.1-3,21-8.1c2.1,5.2,5,9.6,9.5,13.7c2.3,2.2,5.3,0.5,6.3-2
			c3-7.5,3.7-14.5,2.6-22c6.7,0.1,13.1-0.7,19.8-2.5c2.9-0.8,4.1-5.5,1.2-7.1c-11-6.1-25.4-10.3-27.3-24.3
			c-2.2-16.1-0.6-32.7,6.1-47.6c14.1-31.4,46.6-31.3,75.8-26.7c0.2,0,0.4,0,0.5,0c-1.6,31.6-2.6,63.2-2.2,94.8
			c0.6,44.8,4.5,89.9,13.7,133.8c7.4,35.2,22.7,69.3,53.8,89.4c11.7,7.5,25.4,10.5,39.1,12.2c-0.8,3.1-1.2,6.1-1.6,9.5
			c-1.2,10-9.2,10.4-15.5,13.4c-8.8,4.2-16.2,9.7-22.9,16.7c-1.7,1.8-1.8,6.2,1.4,6.6c17.7,2.5,35.3,2.7,53,0.5
			c1.8-0.2,3.4-1.4,3.8-3.2c1.4-5.5,1.9-10.8,1.8-16.5c-0.1-4.8-3.7-20.8,0.5-24.3c0.3-0.2,0.4-0.5,0.6-0.8
			c16.9,1.2,33.8,1.7,50.7,0.9c12.4-0.6,24.7-2.3,36.6-5.2c-0.9,12.7-1.1,25-3.7,37.6c-0.5,2.3,0.7,4.5,3.2,4.5
			c16.2,0.1,32.3,0.2,48.5,0.2c2.6,0,5-3.6,3.4-6c-6.1-9.2-18.3-16.1-28.8-20.1c0-7.3,0-14.6-0.2-22c0-0.5-0.1-1-0.3-1.4
			c13.6-5.5,26.4-12.8,37.8-22.6c22.4-19.3,37.2-48.8,41.6-77.9c5.1-34-2.9-64.5-21.3-93.3c-3.3-5.2-6.9-10.4-10.5-15.6
			c12,2.8,24.2,4.9,36.5,5.9c9.8,0.8,24.4-0.9,33.1,3.8c6.9,3.7,13.2,12.4,18.8,17.8c2.2,2.2,5.6,0.7,6.4-2.1c2-6.7,2.4-12.7,1-19.2
			c7.5-1.7,14.4-4.4,21.1-8.8c2.3-1.5,2.8-5.2,0.3-6.7c-6.4-4-12.6-6.1-19.7-7c1.3-3.6,2-7.1,2-11.3c0-2.8-2.6-4.2-5-2.9
			c-37,21.2-76.9,8.3-115.1-1.5c-4.4-8.1-8-16.4-10.2-25.2c23.5,11.6,46.1,18.1,73.2,17.8c16.8-0.2,33.9-4.2,50.6-2.5
			c13.5,1.3,23.9,12.5,37.8,13.8c3.2,0.3,5.9-2.8,4.4-5.9c-3-6.4-6.5-11.8-11-16.9c9.2-3,17.1-8.1,24-15.5
			C650.7,1321,649.6,1317.3,646.2,1317.1z M217.8,1271.2c-34-5.2-64.6-2.6-82.5,30.7c-8.7,16.2-9,35.5-7.3,53.3
			c1.3,13.4,10.2,18.7,20.7,23.9c-3.4,0.3-6.8,0.3-10.7-0.1c-2.7-0.3-5.5,2-4.7,5c1.5,5.8,1.7,11.1,0.6,16.5
			c-2.5-3.3-4.2-6.8-5.3-11.3c-0.7-2.8-4.2-3.7-6.1-1.5c-3.5,4-7.3,6.5-11.8,8.1c4.5-8.5,5.5-18,5-28.5c-1.1-21.8-5.8-42.7-1.1-64.4
			c10.2-46.7,67.2-46.1,104.3-47.7C218.4,1260.4,218.1,1265.8,217.8,1271.2z M507,1067.7c14.3-0.6,22,11.5,22.3,24.5
			c-5.3-0.3-10.5-0.5-15.6-0.6c-8.8-0.2-17.6-0.7-26.4-1.2C490.9,1078.8,491.3,1068.4,507,1067.7z M434,1074.4
			c3.2-10.9,13.8-17.4,24.9-15.9c7.4,1,13.2,8.1,16.7,14c3.3,5.6,3,11.5,4.4,17.4c-16.2-1.1-32.3-2.3-48.5-3.1
			C432.4,1082.7,432.8,1078.5,434,1074.4z M409.5,1067.5c10,1.2,12.3,10.7,14.2,18.9c-1.1,0-2.2-0.1-3.3-0.2
			c-3.9-0.1-16.9-0.9-28.7,0.3C389.4,1075.9,398.4,1066.2,409.5,1067.5z M221,1214.4c-35.9-12.2-54.2-48.7-43.5-85
			c4.2-14.1,14.7-25.1,18.3-39.5c3-12-3.3-24.1-4.3-36.1c5.3,2.5,9.5,5.8,13.4,10.9c1.1,1.4,3.6,1.1,4.6-0.2
			c6.6-8.6,14.1-15.7,22.7-21.9c-1.4,7.7-4.7,14.1-10.6,20.3c-1.9,2-1.1,5.7,2,5.7c6.8-0.1,18-0.6,20.9,8c-11.4-1-24.3-1.1-32.9,7.4
			c-12.5,12.2-20.7,29.5-26,45.9c-4.6,14.2-3.9,29.1,1.1,42.9c5.6,15.6,20.8,23.9,35.1,30.3C221.4,1206.9,221.2,1210.7,221,1214.4z
			 M333.3,1647.5c-13.4,1.4-26.7,1.5-40.1,0.2c2.8-2.4,5.7-4.6,8.9-6.6c6-3.8,13-5.2,19-8.9c6.4-3.8,6.9-15.3,6.3-23.1
			c2.2,0.2,4.4,0.4,6.6,0.6c0.4,0,0.8,0.1,1.2,0.1c-0.7,1.8-1,3.8-1.3,6.3C332.5,1626.7,335,1637,333.3,1647.5z M469.6,1640.7
			c-11.8,0-23.6,0-35.4,0.1c2-11.9,3.3-24.2,1.5-36c3.3-0.9,6.5-1.8,9.7-2.9c0,7.9,0.1,15.8,0.1,23.7c0,1.8,0.9,3.1,2.6,3.6
			C454.5,1631.3,463.3,1635.5,469.6,1640.7z M592.4,1368.3c-0.5,2.4-1.5,4.6-2.9,6.8c-1.4,2.5,0,5.4,2.9,5.5
			c5.7,0.3,10.4,1.5,15.1,3.6c-5,2.4-10.1,4-15.9,4.9c-2.3,0.3-4.6,2.6-3.8,5.1c1.3,4.4,1.8,8.2,1.4,12.2c-9-9.1-16.8-17-30.9-17.5
			c-22.2-0.9-43.6-3.7-65.1-9.2c-3.1-4.6-6.2-9.3-9.1-14.1C519.1,1377.6,558.2,1384.8,592.4,1368.3z M485.9,1383
			c-0.2,1.7,0.5,3.3,2.5,3.8c0.1,0,0.1,0,0.2,0c1.5,2.2,3.1,4.5,4.6,6.7c22.2,31.6,36.6,62.2,31.9,101.6c-4,34-23.4,65.7-51.4,85.1
			c-32.8,22.7-75.5,25-114.1,23.5c-19.2-0.7-38.8-1.8-57.3-7.1c-20.8-5.9-36.7-22.9-47.6-40.8c-21.4-35.2-25.2-82-29-122.1
			c-4.2-44.6-3.8-89.6-2-134.4c0.8-20.7,2.1-41.5,3.4-62.2c1.2-18.6-3.1-73.5,27-70c2.7,0.3,6.3-2.9,4.3-5.8
			c-12.3-17.8,4.8-38.2,24.3-28.2c3.4,1.7,6.4-2.2,5.1-5.3c-8.5-20.8,14-35.1,30.8-23c2,1.4,4.6-0.6,5.2-2.5
			c3.2-10.2,9-18.2,19.1-22.3c12.4-5,25.1,5.7,26.2,17.6c0.1,1,0.6,1.6,1.3,1.9c1.1,3.7,6.7,2.2,6.6-1.5
			c-0.3-7.8,124.3,1.4,136.4,1.6c43.1,0.9,99.3,7,116,54.7c7,20,3.1,44.4,0.7,64.9c-2.8,23.1-6.7,49.7-18.7,69.9
			c-13.4,22.5-47.7,18.3-69.9,17.7c-25.3-0.7-50.1-4.9-75-8.8c-0.9-0.1-1.7,0.1-2.4,0.5c-1.4,0.2-2.6,1.1-2.9,3
			C455.9,1332.4,469.5,1358.6,485.9,1383z M616.4,1333.4c-2.6,0.5-3.9,4.7-1.9,6.5c3.9,3.7,7.1,7.7,9.9,12.1
			c-7.2-2.6-13.7-6.8-21.1-9.5c-12.9-4.7-26-2.3-39.3-1.2c-17.1,1.4-34,1.9-51-0.8c-16.1-2.6-30.8-10.2-45.1-17.6
			c-0.4-3.7-0.5-7.4-0.3-11.2c42.3,32.7,100.9,31.8,143.5-0.2c0.5,3.5,0.5,7.1-0.3,10.7c-0.5,2.7,1.2,4.7,4,4.2
			c7.6-1.5,14.9-2.1,22.4-2.1C631,1328.8,624.3,1331.8,616.4,1333.4z"/>
		<path fill="#852C00" d="M446.6,1154.3c16.5-1.5,21.9-19.5,17.8-33.2c-3.5-11.9-21.4-19.1-32.1-12.5c-7.5,2.8-13,10.4-14.3,19.4
			C415.7,1144.4,431.9,1155.6,446.6,1154.3z M434.5,1114.5c7.1-0.6,14.2-1.4,20.2,3.9c9.3,8.2,4.3,25-6.5,28.4
			c-10.7,3.3-21.1-5.1-23.2-15.1C423.2,1123.6,428,1117.5,434.5,1114.5z"/>
		<path fill="#852C00" d="M495.8,1152.2c5.6,0.4,10.9-3.1,14-7.5c4.3-6.3,6.1-10.7,4.4-18.1c-1.6-6.9-5.1-12.2-11.6-15.3
			c-5.1-2.4-12.3-3-17.4-0.3c-6.6,1-12.1,5.3-12.6,13.8C471.6,1140.6,479.9,1151.3,495.8,1152.2z M483.5,1116.7
			c0.4-0.3,0.9-0.4,1.3-0.6c6.4,1.8,12.7-0.8,18.6,4c7.9,6.5,4.8,20.6-4.1,24.3c-3.3,1.4-7.6,0-10.9-0.9c-5.8-1.7-7.7-6.5-9.1-11.9
			C477.9,1126.1,478.6,1120.2,483.5,1116.7z"/>
		<path fill="#852C00" d="M474.6,1223.4c0.1-0.2,0-0.4,0.1-0.5c37.7,1,74.7,4.8,109.5,21.2c2.4,1.1,4.7-2.6,2.3-4
			c-37.5-21.9-79.8-23.1-122.1-24.4c-41.7-1.3-85.9,1.1-123.8,20.2c-3.4,1.7-1.6,8.1,2.3,6.5c9-3.8,18-6.9,27.2-9.5
			c5,9.3,11.1,18.2,16.7,27.1c1.4,2.3,4.7,2.2,6-0.3c5-9.3,8.9-19.2,11-29.6c5.3,8.3,11,16.3,15.4,25.3c1.7,3.5,5.8,1.4,6.8-1.3
			c3.5-8.9,7.6-17.4,11.5-26.1c5.6,7.6,11.7,14.9,17.3,22.6c1.2,1.6,4.2,1.3,5.3-0.2C466.4,1242.1,471.2,1233.3,474.6,1223.4z
			 M389.5,1250.6c-4.2-6.6-8.4-13.2-12.9-19.5c7-1.8,14.1-3.3,21.2-4.4C395.5,1234.9,392.9,1242.9,389.5,1250.6z M421.9,1244.2
			c-3.8-6.8-8.2-13.4-13.4-19c7.8-1,15.6-1.7,23.4-2.1C428,1229.8,424.8,1237,421.9,1244.2z M441.7,1222.8
			c5.7-0.2,11.5-0.3,17.3-0.2c2.6,0,5.3,0.1,7.9,0.1c-2.4,6.5-5.6,12.7-9.4,18.5C452.6,1234.8,447.5,1228.5,441.7,1222.8z"/>
	</g>
</g>
</svg>
