<?xml version="1.0" encoding="utf-8"?>
<!-- Generator: Adobe Illustrator 18.0.0, SVG Export Plug-In . SVG Version: 6.00 Build 0)  -->
<!DOCTYPE svg PUBLIC "-//W3C//DTD SVG 1.1//EN" "http://www.w3.org/Graphics/SVG/1.1/DTD/svg11.dtd">
<svg version="1.1" xmlns="http://www.w3.org/2000/svg" xmlns:xlink="http://www.w3.org/1999/xlink" x="0px" y="0px"
	 viewBox="1430 950 800 800" enable-background="new 0 0 2272 1872" xml:space="preserve">
<g id="Background">
	<rect x="-12.7" y="-29.1" fill="#FFFFFF" width="2297.7" height="1919.7"/>
</g>
<g id="Object">
	<ellipse fill="#E6E7E8" cx="1815.1" cy="1644.1" rx="268" ry="56"/>
	<g>
		<path fill="#FFFFFF" d="M1872.3,1400c-2.1,4.6-4.7,9-7.8,13.1c4.2,2.8,8.2,5.6,12.1,8.7c-0.6-4.5-1.3-9-2.2-13.4
			C1873.8,1405.6,1873,1402.8,1872.3,1400z"/>
		<path fill="#FFFFFF" d="M1833.1,1455.2c0-5.8,0.3-11.6,1.5-17.2c-4.8,2.5-9.8,4.5-14.9,5.9
			C1824.2,1447.6,1828.5,1451.5,1833.1,1455.2z"/>
		<path fill="#FFC907" d="M1988.9,1096.4c24-4.2,54.5-0.3,70.7,17c13.5,14.4-6.9,44.1-20.5,50.4c-15.6,7.2-33,11.6-50.1,13.4
			c-13.9,1.5-32.1,3.9-45.7-0.4c-20.6-6.6-6.7-23.5,6-32.8c-9.8-1.1-19.4-0.8-29.4,0.2c-2.7,1.6-6.2-1.6-4.2-4.5
			c3.9-5.5,8.5-10.5,13.3-15.2c-18.5-1.4-34.8,3.1-52.5,8.8c-0.2,0.3-0.4,0.6-0.6,1c-0.8,0.9-2,0.6-2.6-0.3c0,0,0-0.1,0-0.1
			c-0.9-0.4-1.3-1.5-1.1-2.6c-0.8-3.6,0.5-8,1.5-11.5c1.1-3.8,2.5-7.3,4-10.9c-10.3,3.1-19.8,7.6-30.1,11.1
			c-0.9,1.7-3.8,1.5-4.1-0.5c-1.1-6.2,0.1-12.9,1.3-19.4c-6.8,2.4-13.4,5.4-19.5,9.2c-6.5,4.1-11.5,9.2-17.1,14.3c0,0.1,0,0.2,0,0.2
			c-0.6,2.5-5,3.3-5.4,0.3c-1.3-11.8,0.9-24.5,3.2-36.5c-6.4,5-12.8,10.8-16.7,17.6c-4.1,7.1-7,14.8-10.6,22.1
			c-0.1,2.9-3.5,5.8-5.6,3c-10-13.4-24.3-21.8-40.6-23.9c2.7,5.5,6.4,10.4,7.3,16.7c0.7,5,0.7,9.4-0.8,14c0.2,0.1,0.3,0.2,0.5,0.2
			c3.6,2.3,0,8.6-3.7,6.3c-7.2-4.4-14.8-6.8-22.9-7.3c4.2,10.4,3.8,22.8,0.9,33.4c0.2,1.3-0.4,3-2,3.7
			c-32.7,14.5-103.3,0.6-103.1-45.1c0.1-17.6,11.5-31.2,30-31.5c14.7-0.2,28.7,6.5,43.3,6c14.4-0.6,21-8.2,28-17.4
			c-19.5,7.6-42.6-3.3-62.1-6.4c-18.6-3-39.9-1.9-53.8,12.7c-10.4,10.9-17.6,25.6-17.7,41c0,30.5,21.1,57.5,48.8,69.1
			c16.1,6.8,39.2,16.6,31.6,38.4c-0.5,1.4-1.8,3-3.4,2.9c-9.2-0.5-17.1,1.1-24.9,5.3c5.9,4.5,12.1,8.6,18.3,12.8
			c2.2,1.5,1.5,4.2-0.2,5.4c-0.1,0.1-0.1,0.2-0.3,0.3c-5.1,2.8-10.6,4.3-15.7,7.2c-3.2,1.8-6.3,3.8-9.4,5.8
			c3.8,1.9,7.7,3.7,11.8,5.1c4.5,1.6,9.6,2.3,13,5.6c1.2,1.1,0.3,3.3-1.1,3.7c-1.3,0.4-2.6,0.5-3.9,0.5c-2.9,1.6-6.9,5.6-8.3,6.6
			c-3.6,2.5-7.3,5-10.9,7.4c3.6,2.6,7.3,5.1,10.8,7.9c3.9,3.1,8.4,5.7,10.4,10.3c0.7,1.7-0.6,3.8-2.5,3.4c-0.7-0.1-1.3-0.5-1.9-0.7
			c-3.8,2.9-8.1,5.3-12.1,8c-3.4,2.4-6.6,4.9-9.8,7.5c3.7,1.2,7.4,2.4,11,3.7c4.1,1.4,8,2.4,11.3,5.2c1.7,1.4,0,4.5-1.9,4.5
			c-0.5,0-1-0.1-1.4-0.1c-2.2,2.9-5.2,5.2-7.7,7.8c-3.4,3.7-7.4,7.7-9.9,12.1c0.4,0.1,1,0.2,1.6,0.4c1.4,0.1,2.8,0.2,4.2,0.3
			c2.8,0.2,5.6,0.4,8.4,0.6c3.3,0.2,6.1,0.3,8.8,2c1,0.2,1.9,1,1.9,2.6c-0.2,27.4,4,52.4,15,77.6c1.1,2.5-1.1,5.1-3.2,5.3
			c-4.7,6.7-9.3,12.9-11.7,21.1c-1.8,6.3-2.8,12.6-3.3,18.9c6.3-6,13.3-12,21.1-15c2.4-0.9,3.5,2.2,2.3,3.9
			c-1.9,9-4.6,17.6-4.2,26.9c0.4,8.4,2,16.3,4.3,24.1c3.4-11.9,9.3-24,18.8-30.9c1-1.1,2.9-0.9,3.4,0.7c1.8,6.6,1.5,13.5,3.2,20.2
			c1.3,4.9,3.1,9.5,5.1,14c1.4-5.5,3.1-10.9,5.2-16.2c0.4-1,1.2-1.7,2-2.1c0.8-1.2,2.3-1.8,3.5-0.9c58.2,45.2,126.5,75.1,200.7,79.7
			c36.5,2.3,75.3,0.4,110.4-10.5c33.2-10.3,57.4-37.5,61.4-71.1c-19.2,32.4-80.5,41.2-109,21.5c-0.7,0-1.4-0.1-2.1-0.2
			c-1.8-0.4-2.2-2.9-0.9-4.1c4.5-4,10.6-5.4,15-9.7c3.3-3.2,6-6.9,8.7-10.7c-10,0-23-0.3-26.7-9.2c-1.5-0.2-2.3-2-1.4-3.3
			c3.7-5.3,10.8-8.2,16.6-10.8c4.8-2.2,9.7-3.8,14.8-4.7c-1.7-3.6-3.5-7.2-6-10.3c-2.2-2.7-4.8-4.9-7.3-7.2c-0.4,0-0.8,0.1-1.2,0.1
			c-1.4,0-2.2-1.6-1.4-2.8c0.1-0.2,0.3-0.3,0.4-0.5c0.1-0.8,0.7-1.4,1.4-1.7c5.5-5.7,15.3-7,23.7-6.7c-2-3.4-4.9-6.3-6.9-9.6
			c-2.2-3.6-4.2-7.2-5.4-11.3c-0.7-0.9-0.7-2.6,0.1-3.5c7.1-8,20.2-10.4,31.5-10.6c-3.9-4.7-7.7-9.5-10.9-14.6c-0.1,0-0.3,0-0.4,0
			c-2.1-0.4-1.6-3.1-0.3-4c4.6-3.3,10.1-4.3,15.3-6.7c4.3-2,8.5-4,12.7-6.2c-12.7-5.5-26.2-13.5-34.1-24.6c-2.1-0.2-3-2.4-2.5-4.1
			c-0.2-1.3,1.1-2.6,2.4-1.9c11.2-2.1,23-2.1,34.5-2.2c-11.5-9.2-24-20.4-26.9-34.4c-1.6-1.4-0.9-4.9,1.4-5.4
			c9.7-1.9,19.5-1.4,29.2-2.9c-2.2-1.2-4.5-2.2-6.6-3.5c-3.1-1.9-6-4-8.9-6.3c-6.2-5.1-12.5-10.8-16.3-18c-0.1,0-0.2,0-0.4,0
			c-1.8-0.1-2.3-2.1-1.2-3.3c7.4-8.5,23.5-9.4,35.4-8.8c-3.5-5.4-13-10.5-17-13c-6.4-4.1-12.8-8-20.6-8.2c-0.1,0-0.1,0-0.1,0
			c-2.8,1.3-4.4-2.1-2.7-4.3c4.2-5.6,9.3-10.2,12.4-16.6c2.4-4.9,4-10,5-15.3c-11.8,2.5-24.7,2.6-35.8-2.2c-3.3,0.3-3.2-4.7-0.4-5.6
			c23.7-7.1,48.7-10.1,70.3-23.1c20.9-12.6,41.1-33.5,40.5-59.8C2093.7,1086.3,2028.6,1073.1,1988.9,1096.4z M1826.9,1292.7
			c7.7-6.5,24.8-3,31,3.4c11.5,11.9,10.8,31.1-4.7,39.6c-14.7,8-31.2-0.7-35.2-16.7C1815.9,1310.4,1819.6,1298.2,1826.9,1292.7z
			 M1743.3,1317.8c1.2-9,6-17.8,13.6-20.5c8.4-5.2,21.4-2,26.5,6.7c7.8,13.2,1.2,27.5-11.3,34.9
			C1759.4,1346.6,1741.5,1331.4,1743.3,1317.8z M1878.7,1433.7c-3.7-3.6-7.7-7-11.8-10.1c1.3,9.4,0.8,19.6,0.7,28.1
			c0,3.2-4,5.3-6.4,3c-6-5.8-13.4-9.5-19.9-14.5c-0.4,7.5-1.2,14.9-1,22.5c0.1,2.4-3.2,5.2-5.4,3.5c-6.3-4.7-12.9-9.8-18.3-15.7
			c-1.7,4.5-3.2,9-5.2,13.4c-1.7,3.5-4.8,10.5-9.5,10.7c-4.7,0.3-7.8-9.3-9.6-12.4c-1.8-3.2-4.2-6.6-5.8-10.2
			c-4.2,5.9-9.9,10.9-15.7,15c-1.7,1.2-3.7,0.4-4.8-1.2c-2.8-4.4-3.5-10.5-4.8-15.5c-0.9-3.5-2.2-7.2-2.8-10.9
			c-3.9,3.5-7.7,7-11.6,10.5c-1.9,1.7-5.5,1.6-5.9-1.4c-1.4-8.8-3.2-18.6-2.7-27.9c-4,3.8-8.9,6.6-13.8,9.2c-2.4,1.3-4.9-0.1-5-2.9
			c-0.1-12.9-0.1-27.2,4.3-39.5c-2.9-8.3-5-17.1-6-26.2c-0.2-1.9,2.6-3.3,3.1-1c8.8,39.5,34,80.3,79.6,79.3
			c20-0.4,39.3-8.1,52.4-23.8c12.1-14.5,14.9-29.5,19.5-47.1c0.5-1.9,3.5-2.4,3.9-0.2c1.5,7,1.2,14-0.4,20.7
			c3.6,5.7,4.6,13.5,5.8,20c1.3,6.9,2.4,13.8,3,20.7C1885.2,1433,1881.6,1436.6,1878.7,1433.7z"/>
		<path fill="#FFFFFF" d="M1858.7,1419.9c-4.8,5.1-10.2,9.6-16.1,13.4c6.2,2.5,12.2,6,17.6,10.2c-0.1-4.3-0.2-8.5-0.5-12.8
			C1859.5,1427.1,1859,1423.5,1858.7,1419.9z"/>
		<path fill="#FFFFFF" d="M1762.5,1333.5c5.8,1.2,9.6-1.5,13.2-5.7c5.4-6.2,7-16.6-0.2-22.4c-5.7-4.6-12-3.8-18.4-2.2
			c-4.9,3.6-7.9,10.3-7.5,16.4C1750,1326.2,1756.1,1332.1,1762.5,1333.5z"/>
		<path fill="#FFFFFF" d="M1747.2,1440c3-2.7,6.1-5.5,9.1-8.2c-4-2.9-7.7-6-11.2-9.6C1746.1,1428,1746.5,1434.1,1747.2,1440z"/>
		<path fill="#FFFFFF" d="M1726.4,1420.4c3.6-2.5,7.2-5.1,11.1-7.1c-3.8-5.2-7.1-10.8-9.9-16.8
			C1727.3,1404.5,1726.6,1412.4,1726.4,1420.4z"/>
		<path fill="#FFFFFF" d="M1790.7,1445.6c1.6,3,3.2,6,5,9c1.6,2.6,3.2,5.1,4.8,7.7c0.4,0.7,1.2,2.3,2,3.6c2.7-3.3,4.1-9,5.3-12.4
			c0.9-2.5,1.8-5.2,3-7.6c-3.5,0.5-7,0.8-10.4,0.7C1797,1446.4,1793.8,1446,1790.7,1445.6z"/>
		<path fill="#FFFFFF" d="M1766.8,1446c1.1,3.6,1.9,8.5,3.6,12.3c5-4.2,8.9-9,12.9-14.3c-7.1-1.8-13.6-4.3-19.7-7.7
			C1764.9,1439.4,1765.8,1442.8,1766.8,1446z"/>
		<path fill="#FAA61A" d="M1637,1393.8c-13.3,21.1-47.4,12.6-64-1.6c-11.1-9.5-22.5-21.2-22.7-36.8c-0.1-7.4,1.1-13.7,3.9-20.6
			c1.8-4.4,5.9-7.9,8.4-11.9c-6.3,0-11.3,1.8-17.4,4.8c-1.7,0.8-3.2-0.4-3.2-1.9c-3.2-3.2-6.2-6.8-9-10.5c0.5,6.5,1.4,13,2.5,19.5
			c0.5,3.1-3.3,5.3-5.2,3.6c-3.7,1.4-7.4,2.6-11.2,3.8c6.9,2.9,14.4,6.1,19,11.4c7.5,8.6,9.4,20.2,16.6,29.1
			c20.6,25.5,51.4,32.9,82.3,23.9C1636.9,1402.3,1636.8,1398.1,1637,1393.8z"/>
		<path fill="#FAA61A" d="M1780.3,1587.6c-2.1-0.9-4.1-1.9-6.1-2.9c-0.7,23-3.1,43.8-24.5,57.2c-3.4,2.1-7.2,3.9-10.6,6.1
			c4.9,1.2,9.7,1.4,14.6,0.7c6.6-1.1,24.3-2,25.2-11.9c1.4-16.2,1.9-32.4,1.3-48.6C1780.2,1587.9,1780.2,1587.8,1780.3,1587.6z"/>
		<path fill="#FAA61A" d="M1865.9,1613.8c-3.5-0.6-6.9-1.2-10.4-1.9c0.5,10.1,0.8,34,9,33.6c8.6-0.4,17.3-0.9,25.9-1.4
			c-6.8-4.5-16.3-6.6-21.6-12.3C1865.5,1628.2,1865.6,1619.5,1865.9,1613.8z"/>
		<path fill="#FFFFFF" d="M1852.9,1327.5c7.6-7.4,9.4-19,0.3-26.7c-8.4-7.1-18.5-6.1-26.7,0.5c-1.3,1.8-2.3,3.8-2.7,5.6
			c-1.1,5.4,0.2,11.1,3.2,15.7C1832.9,1331.5,1844.3,1335.8,1852.9,1327.5z"/>
		<path fill="#FAA61A" d="M2031.2,1436.1c0,0,0,0.1,0.1,0.1c9.3,7.2,7.3,22.9,6.1,33.3c-0.4,3.6-2,8.3-5.5,10.1
			c-3.2,1.7-4.7,1.9-7.9,3.6c-12.3,6.3-19.3,14.7-0.6,9.1c2-0.6,4.3,0.9,4,3.2c-0.7,7.3,0.3,13.6,3,19.7c0.8-2.7,1.6-5.5,2.1-8.4
			c0.4-2,3.4-4,5.3-2.5c6.3,4.9,12.5,5.4,18.9,4.1c-9.1-6.6-14.4-15.4-13.6-28.3c0.8-12,7.3-30.4,1-41.6
			c-5.6-9.9-14.1-14.3-24.3-16.1C2023.8,1426.9,2027.5,1431.6,2031.2,1436.1z"/>
		<path fill="#7C3F00" d="M2101.6,1129.4c-6.7-58.2-90.7-64.7-125.6-30.1c-2.2,2.2,0.2,5.3,2.7,4.2c16.7,1.5,33-1.9,49.9,1.4
			c10,2,28.1,8.2,27.3,21.9c-0.8,14.2-9.8,25.9-22.4,31.7c-16.7,7.7-36.2,10.7-54.4,12.1c-10.1,0.8-20.3,0.3-30.3-0.7
			c-21.1-2,6-22.3,11.3-25.1c2.2-1.1,2.5-5.7-0.5-6c-11.7-1.4-23.1-1.7-34.5,0.2c4.6-5,9.1-10.1,14-14.9c1.6-1.5,1.5-5.5-1.2-5.8
			c-19.4-2.3-41.2-0.8-58.9,8.4c0.1-0.9,0.3-1.9,0.5-3c1.3-6.3,3.7-12.4,6.7-18.1c1.3-2.4-0.4-5.2-3.2-4.6c-10.8,2.6-23,6-32.8,12
			c1.2-5.8,1.4-11.9,1.9-17.7c0.2-2-1.9-3.7-3.7-2.9c-12,4.5-28.6,11.2-38.2,21.9c1.5-11,2-22.3,3.8-33.2c0.4-2.5-1.8-5.4-4.5-3.5
			c-7.9,5.7-15.7,12.2-21.5,20.1c-5.4,7.4-8.9,16.1-12,24.7c-12.1-14.3-29.3-22.7-48.2-23.2c-2,0-3.9,2.5-3.3,4.4
			c1.7,5.2,4.5,9.3,7.3,13.9c3.3,5.4,3.6,11.5,3.5,17.6c-8.6-4.3-17.8-6.3-27.6-5.7c-2.3,0.1-4.5,3.1-3.1,5.3
			c7,10.7,4.7,21.8,4.3,33.7c-21.1,4.9-46.2,3.6-66.1-4.8c-21.4-9.1-43.2-47.7-11-58.5c18.6-6.2,39.6,6.8,59.1,4.1
			c16.1-2.3,22.8-17.1,30.8-29.1c1.9-2.9-2.1-6.2-4.4-3.5c-0.1,0.1-0.1,0.1-0.2,0.2c-18.3,6.3-33.7,3.9-52.2-0.9
			c-15.1-4-31.7-7.6-47.2-3.8c-25.1,6.3-43.8,27-47.3,53c-3.8,28.8,9.8,54.3,32,72c11.8,9.4,26,13,38.8,20.4
			c4.1,2.4,7.1,5.8,9.1,10.1c5.6,10.2-6.4,8.5-10.7,9.2c-7,1.1-13.1,4.6-18.9,8.5c-1.6,1.1-2.9,4.2-1,5.8c5.8,4.8,11.6,9.2,18,12.9
			c-8.9,2.6-17.8,9.1-24.9,13.6c-2.1,1.3-2.7,4.8-0.3,6.2c5.3,3.1,10.8,5.9,16.5,8c1.6,0.6,3.2,1.2,4.8,1.7
			c-1.3,0.8-2.5,1.6-3.8,2.4c-5.3,3.3-10.4,6.8-15.6,10.2c-2.2,1.5-2.5,4.6-0.3,6.2c4.3,3.1,8.6,6.3,12.8,9.5c2.1,1.6,4.1,3.4,6.2,5
			c-3.2,1.7-6.3,3.8-9.3,5.7c-5.6,3.7-10.8,7.8-15.9,12.1c-2.1,1.7-1.1,4.9,1.2,5.7c4.9,1.7,9.7,3.5,14.6,5.2
			c1.8,0.6,3.6,1.3,5.4,1.9c-2.9,2.3-5.5,5.2-7.8,7.6c-3,3.1-10.2,9.8-10.4,14.5c-0.2,5.6,3.8,6.3,8.6,6.7c4.3,0.3,9.7,1.5,14.7,1.4
			c-17.4,22.9-45.6,10.4-63.5-6.5c-10.9-10.2-16.4-22.1-13.6-37.2c1.7-9.6,10.2-14.5,12.8-23.2c0.4-1.4-0.3-3.5-2-3.7
			c-8.3-1-15.7,0-22.2,4.7c-3.7-6.5-9.2-12.4-14.1-17.9c-1.9-2.1-5.3,0-5.3,2.5c0,9.3,0.7,18.7,2.5,27.8c-6.6,0.7-12.9,2.7-19.3,4.9
			c-2.3,0.8-3.6,4.6-1,6c14,7.2,25.5,12,31.7,27.5c4.4,11.2,12.6,21.7,22.1,28.9c21.8,16.6,49.3,20.8,75.2,12.4
			c1.8,17.4,6.6,34.4,13.9,50.3c-14.7,11.1-18.2,34.5-18.3,51.5c0,3,3.3,4.2,5.4,2.1c5-4.9,10.8-9.1,16.2-13.6
			c-6.3,18.3,0,40.9,6.2,57.9c1.1,3,5.8,1.5,6.2-1.2c2.2-13.2,8.1-22.9,14-33.6c0.4,12.7,5.4,24.7,11,36.2c1.3,2.7,5.5,1.6,6-1.1
			c1.3-7.8,3.4-15.4,6.1-22.8c19.4,16.9,41.1,31,64.1,42.6c-2.5,19.4-1.4,38.2-18.8,51.1c-6.1,4.6-15.3,6.6-18.4,13.9
			c-0.5,1.2,0,2.7,0.8,3.6c8.9,11.4,36.1,5.3,46.8-0.2c7.9-4.1,6.9-11.1,7.6-19.5c1.1-13.4,1.2-26.9,0.7-40.4
			c20.1,8.6,41.1,15.2,62.4,20c0.2,7.9,1,15.9,1.6,23.8c0.4,5.7,0,11.3,3.9,15.8c3.3,3.8,10.9,2.9,15.2,2.6
			c9.6-0.5,19.2-1.1,28.8-1.7c2.4-0.1,4.9-3.4,3.3-5.7c-4-5.9-11-8.7-17-12.3c-2.8-1.7-10.3-4.5-11.3-7.9c-1-3.3-1.2-6.7-1.2-10.1
			c16.9,2.7,33.9,4.3,50.8,4.6c38.7,0.9,87.3-2.4,120.8-23.6c28.8-18.1,43.2-53,39.7-86.1c-0.2-1.6-1.1-2.3-2.1-2.4
			c-1.6-1.1-4.3-0.4-4.9,2c-10.5,41.3-63.3,52.3-100,39.4c2.2-1.2,4.2-2.7,5.9-4.1c6.6-5.3,11-13,15.8-19.8c1.6-2.3-0.2-5.3-2.8-5.4
			c-9.1-0.3-19.4,1-27.4-3.6c2.3-1.1,4.4-2.5,6.7-3.7c6.8-3.6,14.1-6.4,21.8-7.3c2.4-0.3,4.1-2.9,3-5.1c-3.3-6.7-7.5-15.6-14-20.4
			c0.9-0.3,1.7-0.6,2.6-0.9c5.7-1.8,11.9-1.9,17.8-1c2.6,0.4,4.9-2,4.3-4.6c-1-4.7-3.6-8.2-6.6-12c-3.2-4-5.6-8.4-8.2-12.6
			c3.5-1.1,6.9-2.7,10.4-3.8c6.6-2.1,13.6-2.7,20.5-2.5c5.3,4.4,4.5,12.5,4.5,18.5c0,9.2-6.6,13.9-13.8,17.9
			c-5,2.8-13.4,7.2-15.2,13.4c-3.2,11,10,9.7,18.1,8.1c-0.2,9.3,2.1,17.7,7.3,25.8c1.9,3,5.3,1.6,6.5-1.2c1.5-3.6,2.7-7.3,3.7-11
			c9.7,5.9,16.1,3,28.1-0.8c2.5-0.8,3.8-4.9,1.1-6.3c-28.4-14.8-10.8-42.1-15.4-66.9c-2.3-12.3-13.4-19.8-25-22.5
			c7.3-3.2,14.4-8,20.1-11.2c2.6-1.5,2.2-5.3-0.5-6.2c-8.3-3-16.1-6.9-23.5-11.7c-4-2.6-7.5-5.8-11.1-8.8c11.7,0,23.7-1.4,35.3-1.9
			c3.4-0.1,4.3-4.5,1.9-6.4c-7.4-5.7-14.6-11.5-21.1-18.2c-4.5-4.6-7.6-10.1-11.1-15.3c11,0.7,22.9-1.5,33.3-4.6
			c2.3-0.7,3.3-3.8,1.7-5.6c-4.6-5.1-12.1-7.4-17.9-11.1c-7.2-4.6-12.6-10.9-18.7-16.6c3.7-1,7.3-2.5,10.9-3.4
			c7.1-1.7,14.5-1.8,21.7-1.3c1.6,0.1,3.2-1.8,3.1-3.3c-0.3-8.7-10.1-13.9-16.5-18.5c-6.7-4.7-14.3-9.8-22.5-10.7
			c9.4-8.9,14.3-23.6,15.2-35.7c0.1-2-1.7-3.4-3.6-2.8c-7.8,2.3-15.1,2.8-22.5,2.4C2050.7,1216.8,2108.2,1187.4,2101.6,1129.4z
			 M1554.8,1382.6c-7.2-8.9-9.1-20.5-16.6-29.1c-4.6-5.3-12-8.5-19-11.4c3.7-1.2,7.5-2.4,11.2-3.8c1.9,1.7,5.7-0.4,5.2-3.6
			c-1.1-6.5-2-13-2.5-19.5c2.9,3.6,5.8,7.3,9,10.5c0,1.5,1.5,2.7,3.2,1.9c6-3,11.1-4.8,17.4-4.8c-2.5,4-6.6,7.5-8.4,11.9
			c-2.8,6.9-4,13.2-3.9,20.6c0.2,15.6,11.6,27.3,22.7,36.8c16.6,14.2,50.6,22.7,64,1.6c-0.2,4.2-0.1,8.5,0.2,12.7
			C1606.2,1415.6,1575.4,1408.1,1554.8,1382.6z M1778.9,1636.7c-0.9,10-18.6,10.8-25.2,11.9c-4.9,0.7-9.8,0.5-14.6-0.7
			c3.3-2.2,7.2-3.9,10.6-6.1c21.4-13.4,23.9-34.2,24.5-57.2c2,1,4,2,6.1,2.9c0,0.2-0.1,0.3-0.1,0.5
			C1780.8,1604.4,1780.3,1620.5,1778.9,1636.7z M1890.4,1644.1c-8.6,0.5-17.3,1-25.9,1.4c-8.2,0.3-8.5-23.5-9-33.6
			c3.4,0.7,6.9,1.3,10.4,1.9c-0.3,5.6-0.4,14.4,2.9,18C1874.1,1637.5,1883.6,1639.7,1890.4,1644.1z M2044.1,1438.5
			c6.3,11.2-0.2,29.6-1,41.6c-0.8,12.9,4.5,21.7,13.6,28.3c-6.5,1.2-12.7,0.7-18.9-4.1c-1.9-1.5-4.9,0.5-5.3,2.5
			c-0.6,2.9-1.3,5.7-2.1,8.4c-2.7-6.1-3.7-12.4-3-19.7c0.2-2.3-2-3.8-4-3.2c-18.7,5.6-11.7-2.8,0.6-9.1c3.2-1.6,4.8-1.9,7.9-3.6
			c3.5-1.8,5.1-6.6,5.5-10.1c1.2-10.4,3.2-26.1-6.1-33.3c0,0,0-0.1-0.1-0.1c-3.7-4.5-7.4-9.3-11.3-13.7
			C2030.1,1424.2,2038.5,1428.6,2044.1,1438.5z M2054.4,1199.9c-21.6,13-46.6,16-70.3,23.1c-2.7,0.8-2.9,5.9,0.4,5.6
			c11.1,4.8,24,4.7,35.8,2.2c-1,5.3-2.6,10.4-5,15.3c-3.1,6.4-8.2,11.1-12.4,16.6c-1.7,2.2-0.2,5.7,2.7,4.3c0.1,0,0.1,0,0.1,0
			c7.8,0.3,14.2,4.1,20.6,8.2c4,2.5,13.6,7.7,17,13c-11.9-0.6-28,0.3-35.4,8.8c-1.1,1.2-0.6,3.2,1.2,3.3c0.1,0,0.2,0,0.4,0
			c3.7,7.2,10.1,12.9,16.3,18c2.8,2.3,5.8,4.3,8.9,6.3c2,1.3,4.4,2.3,6.6,3.5c-9.7,1.5-19.5,1.1-29.2,2.9c-2.3,0.4-3,4-1.4,5.4
			c2.9,14,15.4,25.3,26.9,34.4c-11.6,0.1-23.3,0.1-34.5,2.2c-1.2-0.6-2.6,0.7-2.4,1.9c-0.5,1.7,0.4,3.9,2.5,4.1
			c7.9,11.1,21.4,19.1,34.1,24.6c-4.2,2.1-8.4,4.2-12.7,6.2c-5.1,2.3-10.6,3.4-15.3,6.7c-1.3,0.9-1.7,3.6,0.3,4c0.1,0,0.3,0,0.4,0
			c3.2,5.1,7.1,9.9,10.9,14.6c-11.3,0.2-24.4,2.6-31.5,10.6c-0.8,0.9-0.8,2.6-0.1,3.5c1.2,4,3.2,7.7,5.4,11.3c2,3.3,4.9,6.3,6.9,9.6
			c-8.4-0.4-18.2,1-23.7,6.7c-0.7,0.3-1.3,1-1.4,1.7c-0.1,0.2-0.3,0.3-0.4,0.5c-0.7,1.2,0,2.8,1.4,2.8c0.4,0,0.8-0.1,1.2-0.1
			c2.5,2.3,5.1,4.5,7.3,7.2c2.5,3.1,4.3,6.7,6,10.3c-5.1,0.9-10,2.5-14.8,4.7c-5.8,2.6-12.8,5.5-16.6,10.8c-0.9,1.3-0.1,3.1,1.4,3.3
			c3.7,8.9,16.8,9.2,26.7,9.2c-2.7,3.8-5.4,7.4-8.7,10.7c-4.4,4.4-10.6,5.7-15,9.7c-1.3,1.2-0.9,3.7,0.9,4.1
			c0.7,0.2,1.4,0.2,2.1,0.2c28.6,19.7,89.8,10.9,109-21.5c-4,33.6-28.2,60.8-61.4,71.1c-35.1,10.9-73.9,12.8-110.4,10.5
			c-74.2-4.6-142.5-34.6-200.7-79.7c-1.2-0.9-2.6-0.3-3.5,0.9c-0.8,0.4-1.6,1-2,2.1c-2.1,5.3-3.8,10.7-5.2,16.2
			c-2-4.5-3.8-9.2-5.1-14c-1.8-6.6-1.5-13.6-3.2-20.2c-0.4-1.6-2.4-1.8-3.4-0.7c-9.6,6.9-15.4,19-18.8,30.9
			c-2.3-7.8-3.9-15.8-4.3-24.1c-0.4-9.4,2.2-18,4.2-26.9c1.2-1.7,0.1-4.8-2.3-3.9c-7.8,3-14.8,8.9-21.1,15
			c0.5-6.4,1.5-12.7,3.3-18.9c2.3-8.2,6.9-14.4,11.7-21.1c2.1-0.2,4.3-2.8,3.2-5.3c-11.1-25.2-15.2-50.2-15-77.6
			c0-1.6-0.8-2.4-1.9-2.6c-2.6-1.7-5.5-1.7-8.8-2c-2.8-0.2-5.6-0.4-8.4-0.6c-1.4-0.1-2.8-0.2-4.2-0.3c-0.7-0.2-1.2-0.3-1.6-0.4
			c2.5-4.4,6.4-8.4,9.9-12.1c2.5-2.7,5.5-4.9,7.7-7.8c0.5,0,0.9,0.1,1.4,0.1c1.9,0,3.7-3.1,1.9-4.5c-3.4-2.8-7.2-3.8-11.3-5.2
			c-3.7-1.3-7.3-2.5-11-3.7c3.2-2.6,6.4-5.1,9.8-7.5c3.9-2.8,8.2-5.1,12.1-8c0.6,0.2,1.3,0.6,1.9,0.7c1.9,0.4,3.3-1.8,2.5-3.4
			c-2.1-4.6-6.5-7.3-10.4-10.3c-3.5-2.7-7.2-5.3-10.8-7.9c3.6-2.5,7.3-5,10.9-7.4c1.4-0.9,5.3-4.9,8.3-6.6c1.3,0,2.6-0.1,3.9-0.5
			c1.4-0.4,2.3-2.6,1.1-3.7c-3.5-3.3-8.6-4.1-13-5.6c-4.1-1.4-8-3.2-11.8-5.1c3.1-2,6.2-3.9,9.4-5.8c5-2.9,10.6-4.4,15.7-7.2
			c0.1-0.1,0.2-0.2,0.3-0.3c1.7-1.2,2.4-4,0.2-5.4c-6.2-4.2-12.4-8.3-18.3-12.8c7.7-4.2,15.7-5.9,24.9-5.3c1.6,0.1,2.9-1.5,3.4-2.9
			c7.6-21.9-15.5-31.7-31.6-38.4c-27.7-11.6-48.9-38.6-48.8-69.1c0-15.4,7.2-30,17.7-41c13.9-14.5,35.2-15.6,53.8-12.7
			c19.6,3.1,42.7,14,62.1,6.4c-7,9.2-13.5,16.8-28,17.4c-14.6,0.6-28.6-6.2-43.3-6c-18.5,0.3-29.9,13.9-30,31.5
			c-0.2,45.7,70.4,59.5,103.1,45.1c1.5-0.7,2.2-2.3,2-3.7c2.8-10.6,3.3-23-0.9-33.4c8.1,0.5,15.8,2.9,22.9,7.3
			c3.7,2.3,7.3-4.1,3.7-6.3c-0.2-0.1-0.3-0.2-0.5-0.2c1.5-4.6,1.5-9,0.8-14c-0.9-6.2-4.6-11.2-7.3-16.7
			c16.3,2.1,30.6,10.5,40.6,23.9c2.1,2.8,5.5-0.1,5.6-3c3.6-7.4,6.5-15.1,10.6-22.1c3.9-6.8,10.2-12.7,16.7-17.6
			c-2.3,12-4.5,24.7-3.2,36.5c0.3,3.1,4.8,2.3,5.4-0.3c0-0.1,0-0.2,0-0.2c5.6-5,10.5-10.2,17.1-14.3c6.1-3.8,12.7-6.8,19.5-9.2
			c-1.2,6.4-2.4,13.2-1.3,19.4c0.4,2,3.2,2.2,4.1,0.5c10.2-3.5,19.8-8,30.1-11.1c-1.6,3.5-3,7.1-4,10.9c-1,3.5-2.4,7.8-1.5,11.5
			c-0.3,1.1,0.1,2.2,1.1,2.6c0,0,0,0.1,0,0.1c0.6,0.9,1.8,1.1,2.6,0.3c0.3-0.3,0.4-0.6,0.6-1c17.8-5.8,34-10.2,52.5-8.8
			c-4.8,4.7-9.4,9.7-13.3,15.2c-2.1,2.9,1.5,6.1,4.2,4.5c10-1,19.6-1.3,29.4-0.2c-12.7,9.3-26.6,26.2-6,32.8
			c13.6,4.4,31.8,1.9,45.7,0.4c17.1-1.8,34.5-6.2,50.1-13.4c13.6-6.2,33.9-36,20.5-50.4c-16.1-17.3-46.7-21.2-70.7-17
			c39.7-23.3,104.7-10.1,106,43.7C2095.6,1166.4,2075.3,1187.3,2054.4,1199.9z"/>
		<path fill="#7C3F00" d="M1876.1,1389c1.5-6.7,1.8-13.7,0.4-20.7c-0.5-2.2-3.4-1.7-3.9,0.2c-4.6,17.6-7.4,32.6-19.5,47.1
			c-13.1,15.7-32.3,23.4-52.4,23.8c-45.7,1-70.9-39.8-79.6-79.3c-0.5-2.2-3.4-0.9-3.1,1c1,9.1,3.1,17.9,6,26.2
			c-4.4,12.3-4.4,26.6-4.3,39.5c0,2.8,2.6,4.1,5,2.9c4.9-2.6,9.8-5.4,13.8-9.2c-0.4,9.2,1.4,19,2.7,27.9c0.5,3.1,4,3.1,5.9,1.4
			c3.9-3.5,7.7-7,11.6-10.5c0.6,3.7,1.8,7.4,2.8,10.9c1.3,5,2,11.1,4.8,15.5c1,1.6,3.1,2.4,4.8,1.2c5.8-4,11.5-9.1,15.7-15
			c1.5,3.6,3.9,7.1,5.8,10.2c1.8,3.1,4.9,12.7,9.6,12.4c4.7-0.2,7.8-7.2,9.5-10.7c2-4.3,3.5-8.9,5.2-13.4c5.4,5.9,12,11,18.3,15.7
			c2.3,1.7,5.5-1.1,5.4-3.5c-0.2-7.6,0.6-15,1-22.5c6.5,5,13.9,8.7,19.9,14.5c2.4,2.3,6.3,0.2,6.4-3c0-8.5,0.5-18.7-0.7-28.1
			c4.1,3.2,8.1,6.5,11.8,10.1c3,2.9,6.5-0.7,6.2-3.9c-0.7-7-1.7-13.9-3-20.7C1880.6,1402.5,1879.7,1394.7,1876.1,1389z
			 M1726.4,1420.4c0.2-8,0.9-15.9,1.2-23.8c2.8,6,6.1,11.6,9.9,16.8C1733.6,1415.3,1730,1417.9,1726.4,1420.4z M1747.2,1440
			c-0.7-5.9-1.2-11.9-2.1-17.8c3.4,3.5,7.2,6.7,11.2,9.6C1753.3,1434.5,1750.3,1437.2,1747.2,1440z M1770.4,1458.3
			c-1.7-3.8-2.5-8.8-3.6-12.3c-1-3.2-1.9-6.6-3.2-9.7c6,3.4,12.6,6,19.7,7.7C1779.3,1449.3,1775.4,1454.1,1770.4,1458.3z
			 M1807.8,1453.5c-1.2,3.4-2.5,9.1-5.3,12.4c-0.8-1.3-1.5-2.9-2-3.6c-1.6-2.6-3.2-5.1-4.8-7.7c-1.9-3-3.4-6-5-9
			c3.1,0.5,6.3,0.8,9.6,1c3.4,0.1,6.9-0.2,10.4-0.7C1809.6,1448.3,1808.7,1450.9,1807.8,1453.5z M1833.1,1455.2
			c-4.5-3.7-8.9-7.6-13.4-11.3c5-1.4,10-3.5,14.9-5.9C1833.4,1443.5,1833,1449.4,1833.1,1455.2z M1842.6,1433.3
			c5.9-3.8,11.3-8.3,16.1-13.4c0.2,3.6,0.7,7.2,1,10.8c0.3,4.3,0.4,8.5,0.5,12.8C1854.9,1439.3,1848.8,1435.7,1842.6,1433.3z
			 M1864.5,1413.1c3.1-4.1,5.7-8.5,7.8-13.1c0.7,2.8,1.5,5.6,2,8.4c0.9,4.4,1.6,8.9,2.2,13.4
			C1872.7,1418.7,1868.7,1415.8,1864.5,1413.1z"/>
		<path fill="#7C3F00" d="M1772.2,1339c12.4-7.4,19.1-21.7,11.3-34.9c-5.2-8.8-18.2-11.9-26.5-6.7c-7.6,2.7-12.4,11.5-13.6,20.5
			C1741.5,1331.4,1759.4,1346.6,1772.2,1339z M1757.1,1303.3c6.4-1.6,12.7-2.4,18.4,2.2c7.2,5.8,5.7,16.2,0.2,22.4
			c-3.7,4.2-7.4,6.9-13.2,5.7c-6.4-1.3-12.5-7.2-12.9-13.8C1749.2,1313.6,1752.2,1306.8,1757.1,1303.3z"/>
		<path fill="#7C3F00" d="M1853.2,1335.6c15.5-8.4,16.2-27.7,4.7-39.6c-6.2-6.4-23.3-9.9-31-3.4c-7.3,5.5-11,17.7-8.8,26.2
			C1822.1,1334.9,1838.5,1343.6,1853.2,1335.6z M1823.9,1306.9c0.4-1.8,1.4-3.8,2.7-5.6c8.1-6.5,18.2-7.5,26.7-0.5
			c9.1,7.6,7.3,19.3-0.3,26.7c-8.6,8.3-20,3.9-25.8-4.9C1824.1,1318,1822.8,1312.3,1823.9,1306.9z"/>
	</g>
</g>
</svg>
